<?xml version="1.0" encoding="UTF-8"?>
<svg id="Layer_1" data-name="Layer 1" xmlns="http://www.w3.org/2000/svg" viewBox="0 0 392.11 249.69">
  <path d="M307.86,21.36C265.47-.88,211.17-3.86,163.55,9.51c-47.61,13.37-90.21,41.08-126.94,74.17C19.29,99.28,2.05,118.52,1.51,141.81c-.53,23.31,16.07,43.59,34.47,57.96,34.84,27.2,78.6,41.24,122.54,46.24,39.66,4.51,80.11,2.02,118.92-7.32,30.23-7.28,60.27-19.2,82.67-40.75,22.4-21.55,35.89-54.16,28.46-84.32-6.21-25.19-25.58-45.09-46.55-60.41-11.81-8.63,8.24-9.62-34.15-31.85Z" style="fill: none; stroke: #3d233b; stroke-miterlimit: 10; stroke-width: 3px;"/>
</svg>