<?xml version="1.0" encoding="UTF-8"?>
<svg id="Layer_2" data-name="Layer 2" xmlns="http://www.w3.org/2000/svg" viewBox="0 0 174.85 151.09">
  <g id="Layer_1-2" data-name="Layer 1">
    <path d="M22.44,37.76c2.03-4.01,4.07-8.2,7.36-11.34,2.69-2.57,6.41-4.45,10.21-3.76,3.44.63,6.2,2.97,8.53,5.44,2.72,2.88,4.95,6.16,7.51,9.17,5.43,6.36,14.04,12.44,22.82,9.84s12.42-11.63,14.8-19.55c1.25-4.16,2.4-8.42,4.78-12.1,1.83-2.83,4.39-5.15,7.28-6.87,5.82-3.48,13.05-4.61,19.56-2.58,3.85,1.2,7.19,3.63,10.45,5.94,3.5,2.49,7.02,4.93,11.09,6.38,4.58,1.64,9.6,1.75,14.38,1.17,2.46-.3,4.85-.86,7.29-1.25.34-.05.82-.19,1.14-.07.07.03.26.19.13.08.02.02.06.28.06.48,0,.34-.06.64-.14.99-.54,2.15-1.78,4.15-2.72,6.14-1.15,2.4-2.29,4.8-3.44,7.2-2.29,4.8-4.58,9.6-6.87,14.4-1.8,3.76-3.46,8.02-6.74,10.77-3.01,2.53-7.24,3.1-10.97,3.83-4.19.81-8.29,1.91-11.79,4.45s-6.18,5.74-8.37,9.36c-4.91,8.14-7.37,17.88-7.2,27.37.08,4.9.96,9.9-.05,14.76-.93,4.5-3.02,8.6-5.55,12.4-4.35,6.54-10.47,12.53-18.16,14.84-6.7,2.01-14.79.75-19.7-4.52-2.71-2.91-3.83-6.85-4.85-10.6-1.13-4.19-2.22-8.47-4.59-12.17-4.64-7.25-12.43-11.55-20.24-14.63-8.33-3.29-17.6-5.39-24.76-11.06-3.06-2.42-5.74-5.44-7.36-9.02s-1.75-7.37-.72-11.07c1.19-4.28,3.61-8.11,5.92-11.86,2.54-4.12,4.92-8.31,6.98-12.69s3.85-8.86,5.36-13.44c1.01-3.06-3.82-4.38-4.82-1.33-1.57,4.76-3.44,9.41-5.66,13.91s-4.74,8.63-7.3,12.85c-2.41,3.98-4.76,8.22-5.69,12.83s-.36,8.97,1.53,13.15c3.76,8.35,11.87,13.5,20.01,16.91,8.51,3.56,17.7,5.65,25.39,10.94,3.27,2.25,6.13,5.14,7.99,8.68,2.03,3.87,2.72,8.29,4.02,12.43s3.26,8.13,6.61,11.01c3.06,2.63,6.82,4.39,10.79,5.11,8.7,1.58,17.01-1.38,23.79-6.81,3.37-2.7,6.24-5.98,8.74-9.48,2.77-3.88,5.12-8.16,6.48-12.75,1.51-5.1,1.22-10.24.93-15.48-.28-4.96,0-9.86,1.15-14.71,1.94-8.12,6.03-17.38,13.57-21.75,3.7-2.14,8.04-2.56,12.14-3.46,4.36-.95,8.55-2.65,11.53-6.11s4.91-8.12,6.94-12.37c2.36-4.95,4.73-9.9,7.09-14.85,1.15-2.4,2.29-4.8,3.44-7.2,1.02-2.13,2.11-4.23,2.25-6.63.13-2.14-.84-4.27-2.8-5.27-2.41-1.24-5.18-.25-7.66.21-4.61.86-9.49,1.3-14.08.16-4.31-1.07-7.96-3.63-11.53-6.17s-7.17-5.06-11.34-6.53c-3.55-1.25-7.47-1.68-11.22-1.34-7.63.69-15.16,4.2-20.09,10.16-2.87,3.47-4.63,7.52-5.99,11.77s-2.35,8.71-4.5,12.67c-1.78,3.29-4.36,6.47-8.09,7.56-3.98,1.17-7.97-.3-11.3-2.49-7.1-4.66-10.64-12.77-17.17-18.03-3.21-2.58-7.05-4.41-11.26-4.22-4.64.2-8.93,2.62-12.12,5.91s-5.47,7.62-7.58,11.8c-1.45,2.87,2.86,5.4,4.32,2.52h0Z" style="fill: #1d1d1b;"/>
  </g>
</svg>