<?xml version="1.0" encoding="UTF-8"?>
<svg id="Layer_2" data-name="Layer 2" xmlns="http://www.w3.org/2000/svg" viewBox="0 0 315.65 473.5">
  <g id="Layer_1-2" data-name="Layer 1">
    <path d="M40.17,374.11c-4.51,15.94-8.76,32.72-7.42,49.42.65,8.06,2.66,16.01,6.64,23.09s9.88,13.03,16.8,17.37c14.87,9.32,32.98,11.06,50.01,8.35,9.56-1.52,18.85-4.41,27.85-7.91,8.48-3.3,16.78-7.07,24.84-11.28,15.56-8.13,30.25-18.02,43.38-29.69,6.51-5.78,12.58-12.02,18.24-18.65,5.46-6.39,10.63-13.03,16.22-19.31,5.51-6.18,11.46-12.07,18.38-16.65,5.78-3.82,11.89-6.36,18.75-7.46,11.4-1.83,25.71.61,32.74,10.34,3.93,5.43,5.94,13.51,1.73,19.38-2.3,3.2-6.3,4.83-10.03,5.6s-7.27.58-10.79-.24c-7.4-1.72-14.03-6.1-18.86-11.93-5.45-6.58-8.44-14.96-10.14-23.24-1.7-8.27-2.16-16.79-2.21-25.22s.46-16.59,1.41-24.84c1.89-16.42,5.58-32.6,10.01-48.5,4.55-16.35,9.93-32.45,15.3-48.54s10.72-32.1,15.25-48.4c4.46-16.02,8.08-32.29,9.99-48.82s1.9-32.93-.56-49.24c-2.6-17.24-8.24-34.55-19.75-47.97C277.3,7.3,260.67-1.19,244.02.14c-15.8,1.26-28.6,11.25-37.16,24.1-9.34,14.01-13.17,30.32-16.52,46.58-3.52,17.1-6.8,35.56-17.66,49.77-8.91,11.66-23.16,21.25-38.39,19.76-15.27-1.5-25.34-14.5-31.46-27.38-3.24-6.82-5.22-14.09-8.11-21.05s-7.31-14.2-14.74-17.42c-16.06-6.97-32.84,5.86-42.58,17.62-11.71,14.14-19.84,30.73-26.42,47.77C3.95,158.03-1.59,177.64.41,197.29c1.7,16.76,8.87,32.33,18.89,45.73s23.36,25.48,37.25,35.81c15.21,11.31,31.38,21.23,46.78,32.28,13.73,9.85,27.86,20.53,35.6,35.98,3.12,6.23,5.18,13.57,3.6,20.53s-6.6,12.47-13.07,15.51-14.33,3.67-21.5,2.91c-7.74-.82-15.4-3.41-22.24-7.09-14.4-7.75-25.15-20.64-30.2-36.19-5.21-16.03-4.8-33.5-1.34-49.85,3.64-17.24,11.81-35.34,3.62-52.55-3.2-6.72-8.91-12.35-16.22-14.31s-15.3.17-21.42,4.7c-12.35,9.11-18.17,24.41-17.43,39.45.65,13.4,5.97,25.99,12.18,37.69s13.54,22.75,19.2,34.71c2.38,5.04,4.43,10.29,5.66,15.87,1.1,5.01,1.37,10.68.42,15.65-.25,1.33.37,2.7,1.75,3.08,1.22.34,2.82-.41,3.08-1.75,2.31-12.14-1.26-24.03-6.39-34.97-5.61-11.97-12.94-23.04-19.16-34.69-6.02-11.28-11.31-23.55-11.76-36.37-.48-14.03,5.38-29.32,18.25-36.47,6.06-3.36,13.28-3.66,19.25.07,5.9,3.69,9.27,10.4,10.62,17.04,1.8,8.87-.42,18.09-2.69,26.67-2.33,8.81-4.61,17.52-5.7,26.6-2.02,16.9-.45,34.59,7.01,50.08,7.24,15.04,20.12,26.65,35.48,33.01,13.99,5.79,32.06,7.71,45.42-.81,6.36-4.06,11.09-10.63,12.3-18.14s-.75-15.43-4.14-22.38c-7.71-15.81-21.9-26.85-35.81-36.96-15.27-11.09-31.38-20.98-46.61-32.12-13.73-10.05-26.81-21.38-37.1-35.01s-17.25-28.36-18.67-44.85c-1.68-19.54,4.12-38.77,11.2-56.75,6.6-16.74,14.94-33.2,26.99-46.72,8.97-10.07,26.91-22,39.34-10.39,5.45,5.09,7.83,12.61,10.17,19.47,2.5,7.31,5.45,14.53,9.46,21.15s8.9,12.37,15.23,16.58,14.1,6.42,21.75,5.98c16-.91,30.08-11.54,38.99-24.31,10.37-14.87,13.52-33.56,17.13-50.95,1.78-8.59,3.63-17.23,6.64-25.49,2.55-7.03,5.95-13.79,10.31-19.87s9.36-10.98,15.56-14.58c6.61-3.84,14.11-5.61,21.74-5.16,16.38.97,30.85,11.4,39.56,24.87,9.31,14.4,13.17,31.76,14.64,48.64,1.4,16.13.44,32.41-2.12,48.38-2.63,16.43-6.82,32.57-11.61,48.49-4.88,16.25-10.4,32.3-15.72,48.41s-10.46,32.2-14.57,48.61-7.11,32.7-8.22,49.38c-.55,8.23-.61,16.49-.09,24.73.56,8.76,1.77,17.62,4.77,25.91,2.9,8,7.43,15.53,14.11,20.92,6.27,5.06,13.96,8.46,22.08,8.73,8.01.27,17.59-2.84,21.22-10.59,3.33-7.13,1.73-15.69-2.67-22-7.64-10.95-21.93-14.67-34.67-13.5-6.75.62-13.4,2.46-19.37,5.72-7.39,4.03-13.9,9.59-19.73,15.63-5.84,6.04-11.08,12.61-16.43,19.08s-11.22,13.1-17.48,19.05c-12.67,12.05-27.02,22.24-42.32,30.69-7.62,4.22-15.48,8.03-23.52,11.38-8.92,3.72-18.1,6.93-27.57,8.94-16.62,3.51-34.58,2.81-49.6-5.81-6.8-3.9-12.57-9.34-16.51-16.15s-5.81-14.34-6.32-22.02c-1.06-15.99,3-31.88,7.31-47.13.88-3.1-3.95-4.43-4.82-1.33h0Z" style="fill: #1d1d1b;"/>
  </g>
</svg>