<?xml version="1.0" encoding="UTF-8"?>
<svg id="Layer_2" data-name="Layer 2" xmlns="http://www.w3.org/2000/svg" viewBox="0 0 334.58 462.57">
  <g id="Layer_1-2" data-name="Layer 1">
    <path d="M264.55,11.26C257.85,4.47,249.28.32,239.68.02s-18.43,2.64-26.9,6.18c-18.42,7.69-35.81,17.63-51.84,29.49-16.25,12.03-31.26,25.6-45.93,39.48s-29.3,28.34-44.49,41.93c-3.84,3.43-7.7,6.85-11.68,10.12s-8.07,6.23-12.67,8.41c-3.84,1.82-8.47,3.06-12.63,2.48-3.64-.51-7.16-2.21-9.87-4.68s-4.86-5.95-5.45-9.76c-.65-4.17.58-8.38,2.9-11.85s5.55-6.03,9.26-7.47c5.14-1.99,10.68-2.13,16.12-1.84,11.58.61,23.17,1.94,34.7,3.2s23.38,2.76,35.03,4.43c23.39,3.35,46.66,7.46,69.79,12.32,23,4.83,45.94,11.46,69.5,12.89,19.89,1.21,40.51-2.01,57.7-12.57,4.16-2.56,8.08-5.54,11.68-8.84h-3.54c12.52,13.28,9.01,35.15,1.81,50.16-9.32,19.42-28,31.8-42.29,47.23-7.21,7.78-13.28,16.45-17.6,26.17s-6.92,19.48-8.32,29.72c-2.88,21.04-.72,42.75,5.51,63.02,1.54,5.03,3.33,9.99,5.45,14.81,2.09,4.75,4.68,9.46,8.37,13.17,3.29,3.29,7.75,5.92,12.55,5.59,4.31-.29,8.53-2.4,11.24-5.79,2.96-3.7,4.02-8.6,2.36-13.12-1.75-4.75-5.79-7.99-10.45-9.68-8.55-3.09-17.86,0-24.67,5.46-7.17,5.75-12.19,14.44-13.95,23.44-.94,4.79-1,9.68-.05,14.47,1.06,5.33,3.46,10.32,5.71,15.22s4.38,9.57,4.99,14.76c.64,5.37-.57,10.72-2.96,15.53s-5.75,9.16-9.4,13.15-7.83,8.14-12.28,11.56c-7.64,5.88-17.17,10.32-27,8.32-4.46-.91-8.59-2.98-11.78-6.25-3.73-3.82-5.65-8.91-7.36-13.87s-3.3-9.83-5.8-14.4c-2.11-3.86-4.74-7.47-7.74-10.69-5.79-6.22-13.08-10.96-21.06-13.83-7.85-2.82-16.35-3.64-24.58-2.28s-16.01,5.34-22.34,10.97c-7.02,6.24-12.5,14.01-18,21.55-5.34,7.31-10.79,14.87-17.96,20.52s-15.37,8.16-24.12,6.87c-9.58-1.42-18.26-6.75-24.82-13.73-7.31-7.77-12.02-17.78-15.01-27.94-3.18-10.8-4.5-22.06-4.68-33.3-.36-23.44,4.12-46.73,11.96-68.78s18.8-42.29,31.96-61.26c13.69-19.73,29.59-37.8,46.24-55.06s35.26-35.12,53.03-52.52c18.5-18.11,36.99-36.21,55.49-54.32,18.54-18.15,37.09-36.31,55.63-54.46,3.19-3.12,6.3-6.07,8-10.29,1.86-4.6.87-9.5-2.89-12.81-1.01-.89-2.54-1-3.54,0-.91.91-1.02,2.64,0,3.54,1.61,1.42,2.52,3.02,2.38,5.07-.11,1.63-.95,3.39-1.92,4.91-.54.85-.74,1.12-1.36,1.83-.65.75-1.37,1.43-2.08,2.12-2.37,2.32-4.73,4.63-7.1,6.95-9.32,9.12-18.63,18.24-27.95,27.36-18.21,17.83-36.42,35.65-54.64,53.48-18.31,17.92-36.67,35.81-54.93,53.79-16.92,16.66-33.63,33.6-48.83,51.87-15.06,18.1-28.67,37.47-39.38,58.47-10.51,20.62-18.43,42.71-22.33,65.56-3.85,22.55-4.43,46.61,1.97,68.76,5.74,19.83,18.74,39.44,39.84,44.83,9.3,2.38,19.03,1.17,27.32-3.73,7.9-4.67,13.91-11.8,19.41-19,10.35-13.58,19.98-30.47,37.33-35.4,15.07-4.28,31.8.74,43.19,11.54,3.03,2.87,5.67,6.1,7.87,9.65,2.53,4.11,4.25,8.51,5.8,13.06,1.79,5.27,3.54,10.77,6.84,15.32,2.99,4.12,6.97,7.24,11.67,9.18,9.41,3.89,19.82,2.16,28.57-2.57,4.89-2.64,9.31-6.14,13.39-9.89s7.91-7.75,11.31-12.09,6.42-9.18,8.2-14.52,2.05-11.1.82-16.63c-2.28-10.26-9.41-19.02-10.6-29.57-1-8.89,1.89-18.01,7.29-25.07,4.81-6.29,12.1-11.21,20.01-11.07,3.93.07,8.1,1.48,10.88,4.56,1.31,1.46,2.16,3.42,2.26,5.34s-.38,3.52-1.38,5.09c-1.88,2.95-5.51,4.85-8.88,4.82-1.77-.01-3.55-.71-5.23-1.77-1.92-1.22-3.57-2.9-4.96-4.7-3.04-3.93-5.13-8.6-6.92-13.2-1.86-4.77-3.47-9.64-4.82-14.57-2.75-10.01-4.49-20.3-5.1-30.67-1.17-20.21,1.77-41.21,11.28-59.29,4.98-9.48,11.8-17.59,19.39-25.09s16.03-14.67,23.44-22.62c3.62-3.89,7.11-8,10.03-12.45,2.62-3.98,4.76-8.25,6.53-12.66,3.51-8.72,5.49-18.38,4.86-27.8-.59-8.71-3.5-17.17-9.56-23.6-.95-1.01-2.56-.89-3.54,0-14.48,13.29-33.89,19.4-53.28,20.13-23.33.87-46.15-5.29-68.73-10.3-23.32-5.17-46.8-9.58-70.4-13.22-23.61-3.64-47.33-6.52-71.12-8.61-10.68-.94-22.71-2.76-32.49,2.85-8.17,4.7-13.44,13.93-12,23.4,1.29,8.49,8.28,15.37,16.37,17.72,9.63,2.8,19.45-1.83,27.15-7.37,8.43-6.06,16.1-13.3,23.74-20.31,7.59-6.97,15.03-14.08,22.47-21.21,14.74-14.14,29.45-28.35,45.15-41.44s31.51-24.32,49.31-33.2c8.82-4.4,17.72-8.89,27.22-11.65,8.26-2.4,17.14-3.32,25.3-.03,4.18,1.69,7.82,4.44,10.97,7.63,2.26,2.29,5.8-1.24,3.54-3.54h0Z" style="fill: #1d1d1b;"/>
  </g>
</svg>