<?xml version="1.0" encoding="UTF-8"?>
<svg id="Layer_2" data-name="Layer 2" xmlns="http://www.w3.org/2000/svg" viewBox="0 0 305.2 183.67">
  <g id="Layer_1-2" data-name="Layer 1">
    <path d="M103.27,168.26c7.95,10.13,21.42,16.48,34.34,15.27,6.37-.59,12.22-2.98,17.23-6.94,4.22-3.33,7.54-7.71,10.14-12.38,5.55-9.99,8.28-21.25,12.24-31.89s9.68-21.42,20.34-27.01c6.58-3.45,14.13-4.52,21.44-3.29,8.11,1.36,15.78,4.63,23.91,5.87,14.77,2.26,30.05-1.76,41.83-10.94,11.59-9.03,18.83-23.02,20.23-37.57.78-8.18-.66-16.38-2.86-24.24-1.13-4.01-2.43-7.97-3.76-11.91-1.08-3.23-2.27-6.44-3.78-9.5-2.94-5.98-7.55-11.36-14.22-13.13-7.2-1.91-14.38,1-20.5,4.67-6.45,3.87-12.23,8.8-18.98,12.17s-13.96,5.26-21.35,5.41c-3.71.07-7.41-.3-11.01-1.22-3.97-1.01-7.75-2.62-11.5-4.25-7.85-3.41-15.75-6.17-24.28-7.27-14.79-1.91-30.45,1.83-41.18,12.62-2.42,2.44-4.56,5.22-6.22,8.23-1.74,3.17-2.89,6.61-3.93,10.07s-1.95,6.91-3.64,10.06-3.95,5.41-6.92,7.13c-6.48,3.76-14.48,4.43-21.81,4.67-8.73.29-17.46-.36-26.19-.07-7.84.26-15.64,1.38-23.02,4.14-6.63,2.48-12.76,5.99-18.3,10.39C10.58,86.07,1.24,99.15.09,113.45c-.57,7.08,1.52,14.32,6.58,19.43,4.46,4.5,10.55,6.78,16.73,7.58s12.76.11,18.78-1.73c6.92-2.12,14.61-6.33,22.03-4.35,2.58.69,5.21,2.09,6.76,4.31,1.78,2.54,1.54,5.44.38,8.27-1.39,3.39-3.7,6.36-4.72,9.91-.9,3.13-.92,6.58.45,9.58,1.1,2.4,3.38,4.4,6.02,4.87,2.12.37,4.25-.03,6.25-.75,4.5-1.61,8.48-4.25,12.8-5.54.53-.16,1.06-.3,1.6-.41.29-.06.57-.12.86-.16-.4.06.2-.02.32-.03.57-.05,1.14-.07,1.71-.04.24.01.49.03.73.06-.43-.05.3.07.42.09,2.23.5,3.85,1.77,5.47,3.73.86,1.04,2.64.89,3.54,0,1.03-1.03.87-2.49,0-3.54-3.6-4.33-8.64-6.06-14.13-4.98-4.68.92-8.86,3.49-13.17,5.41-.11.05-.65.28-.29.13-.22.09-.43.18-.65.26-.49.19-.98.36-1.48.51-.44.13-.88.25-1.32.33-.1.02-.69.1-.36.06s-.4.02-.53.02c-.19,0-.37-.01-.56-.01-.58,0,.27.1-.14-.02-.17-.05-.35-.09-.52-.13-.09-.02-.17-.06-.25-.09-.29-.1.49.29.02,0-.85-.53-1.5-1.16-1.88-1.98-1.05-2.32-.55-5.31.48-7.61,1.53-3.42,3.77-6.49,4.77-10.14,1.89-6.91-2.08-13.15-8.4-15.9-7.19-3.12-14.68-1.11-21.74,1.36-6.24,2.18-12.31,3.99-18.99,3.85-5.49-.11-11.25-1.42-15.66-4.84-11.52-8.9-6.75-25.38-.08-35.68,7.17-11.07,18.22-19.67,30.68-23.99,15.58-5.4,32.02-2.68,48.13-3.45,7.53-.36,15.45-1.32,22.16-5.01,3.14-1.72,5.83-4.1,7.88-7.03s3.31-6.37,4.37-9.76,1.89-6.83,3.3-10.07c1.26-2.88,2.97-5.59,5.04-7.95,4.22-4.83,9.73-8.5,15.75-10.7,15.07-5.5,31.07-1.78,45.28,4.39,3.89,1.69,7.79,3.42,11.89,4.54,3.6.99,7.35,1.51,11.08,1.6,7.49.19,15.02-1.38,21.93-4.26s12.78-7.27,18.97-11.42c5.44-3.65,11.75-7.7,18.59-7.12,6.25.53,10.42,5.51,13.07,10.73,1.4,2.77,2.47,5.68,3.46,8.62,1.32,3.93,2.62,7.87,3.75,11.85,2.14,7.55,3.5,15.27,2.75,23.13-.65,6.82-2.86,13.53-6.23,19.49-6.93,12.26-18.85,20.75-32.61,23.64-6.95,1.46-14.12,1.33-21.04-.25-7.95-1.81-15.6-4.85-23.78-5.6-7.45-.68-15.05.98-21.63,4.52-5.62,3.02-10.22,7.47-13.85,12.67-6.44,9.25-9.59,20.36-13.16,30.91-3.31,9.75-7.02,20.02-14.81,26.99-3.94,3.52-9.13,6.05-14.57,6.71-5.93.72-12.11-.37-17.54-2.84s-10.24-6.17-13.95-10.9c-.83-1.06-2.66-.87-3.54,0-1.05,1.05-.84,2.47,0,3.54h0Z" style="fill: #1d1d1b;"/>
  </g>
</svg>