<?xml version="1.0" encoding="UTF-8"?>
<svg id="Layer_2" data-name="Layer 2" xmlns="http://www.w3.org/2000/svg" viewBox="0 0 336.33 480.97">
  <g id="Layer_1-2" data-name="Layer 1">
    <path d="M125.4,127.75c9.44-7.2,17.17-16.16,23.78-25.98,6.63-9.83,12.13-20.36,17.62-30.85s10.97-21.06,17.52-30.96,13.84-18.66,23.09-25.56c5.67-4.23,12.08-7.66,19.08-8.98,6.37-1.21,12.87-.13,18.42,3.25,11.53,7.02,16.59,20.49,18.72,33.18,1.29,7.66,1.7,15.44,2.47,23.16s1.83,14.92,3.22,22.3c2.75,14.54,6.77,28.84,11.97,42.7,5.23,13.92,11.62,27.41,19.15,40.23,3.79,6.45,7.9,12.68,12.16,18.83s8.64,12.38,12.28,18.98c1.75,3.18,3.37,6.45,4.64,9.85s2.28,7.04,1.72,10.62c-.81,5.24-4.57,9.27-8.98,12-11.04,6.84-24.36,5.61-36.48,9-6.29,1.76-12.32,4.9-16.5,10.03-3.96,4.85-6.26,10.75-7.09,16.93-1.89,13.92,3.65,26.99,11.3,38.34,4.3,6.38,9.17,12.36,13.92,18.41,5.19,6.6,10.37,13.2,15.56,19.8s10.3,12.91,15.3,19.49c3.75,4.94,7.36,10.77,5.82,17.15-1.29,5.32-5.4,9.54-9.66,12.76-5.33,4.02-11.36,6.87-17.31,9.8-15.14,7.45-30.29,14.9-45.43,22.35-15.14,7.45-30.29,14.9-45.43,22.35-7.54,3.71-15.07,7.41-22.61,11.12-3.8,1.87-7.61,3.74-11.41,5.62-1.63.8-3.33,1.88-5.13,2.24-1.14.23-1.73-.17-2.12-1.25-.57-1.6-.7-3.41-.93-5.07-.27-1.97-.49-3.94-.67-5.92-.37-4.01-.57-8.04-.61-12.06-.07-7.91.48-15.83,1.72-23.64s3.63-15.54,5.22-23.39c1.5-7.43,1.82-15.16-1.64-22.12-5.43-10.89-18.15-16.14-29.53-17.96-12.41-1.98-25.76-1.12-37.44,3.72-5.77,2.39-11.14,5.69-15.58,10.12-4.89,4.87-7.91,11-11.77,16.63-3.3,4.8-7.58,8.56-13.25,10.15-5.22,1.47-10.81,1.12-16.03-.37s-10.43-4.29-14.57-8.04c-4.82-4.37-8.38-10.02-11.08-15.91-5.85-12.76-7.7-27.14-9.64-40.91-2.21-15.66-3.76-31.44-4.12-47.26-.36-15.69.47-31.45,3.21-46.92,2.59-14.63,6.99-28.82,12.83-42.46,5.57-13.02,12.16-25.57,18.84-38.04s13.45-24.92,19.41-37.76c5.93-12.8,11.09-26.02,14.36-39.77,2.74-11.51,3.99-26.71-7.07-34.39-5.66-3.93-13.22-4.17-19.7-2.55-5.23,1.31-10.03,3.96-14.08,7.49-7.88,6.88-12.5,16.98-13.69,27.26-1.2,10.36,1.6,21.05,8.54,28.94,8.89,10.11,22.24,14.78,34.95,17.88,9.69,2.35,19.61,4.01,29.6,4.09,11.45.1,23.62-1.85,33.14-8.63,1.1-.78,1.62-2.18.9-3.42-.63-1.09-2.32-1.68-3.42-.9-9.56,6.81-21.7,8.3-33.15,7.89-9.98-.35-19.6-2.17-29.35-4.78-11.73-3.14-24.61-8.23-31.46-18.73-5.36-8.21-6.17-18.5-3.66-27.8,2.51-9.29,8.37-17.77,17.01-22.24,4.9-2.53,11.18-3.86,16.77-2.47s9.54,5.88,10.9,11.58.65,11.72-.56,17.33c-1.49,6.85-3.53,13.59-5.88,20.19-4.7,13.2-10.8,25.84-17.25,38.26-6.54,12.59-13.46,24.98-19.86,37.63s-12.37,25.73-16.78,39.29c-4.84,14.88-7.61,30.37-8.84,45.95-1.25,15.79-.9,31.67.39,47.45,1.26,15.36,3.16,30.8,6.04,45.95,2.58,13.55,6.77,27.23,15.89,37.88,7.63,8.91,19.7,14.62,31.5,14.18,5.83-.21,11.56-1.99,16.22-5.56,5.5-4.22,8.73-10.36,12.39-16.1,3.35-5.25,7.5-9.68,12.81-12.98,5.19-3.23,10.97-5.32,16.94-6.54,11.65-2.4,24.6-1.84,35.74,2.53,4.98,1.95,9.88,4.99,13.11,9.34,4.15,5.61,4.67,12.54,3.55,19.25-1.3,7.79-3.83,15.32-5.21,23.1-1.42,7.99-2.22,16.1-2.33,24.22s.48,16.24,1.69,24.27c.51,3.37,1.44,7.1,5.15,8.18s7.78-1.59,11.03-3.19c15.14-7.45,30.29-14.9,45.43-22.35s30.29-14.9,45.43-22.35c7.61-3.74,15.22-7.49,22.83-11.23,6.87-3.38,13.92-6.53,20.58-10.31,10.24-5.82,21.4-15.11,19.22-28.24-1.21-7.32-6.66-13.23-11.08-18.86-5.24-6.67-10.48-13.33-15.71-20-5.15-6.56-10.31-13.11-15.46-19.67-4.51-5.75-8.98-11.57-12.65-17.91-6.37-10.98-9.92-23.99-5.42-36.34,2.01-5.52,5.81-10.12,10.94-12.99,5.77-3.23,12.52-4.26,18.99-5.14s12.64-1.51,18.64-3.75c5.41-2.02,10.79-5.01,14.46-9.59,4.34-5.42,5.42-12.01,3.64-18.7-1.95-7.34-5.88-14.27-9.89-20.66s-8.4-12.37-12.57-18.57c-4.15-6.17-8.03-12.53-11.63-19.04-7.12-12.9-13.11-26.41-17.88-40.35-4.79-14-8.39-28.42-10.7-43.04-1.18-7.46-1.89-14.96-2.56-22.48-.7-7.84-1.48-15.74-3.52-23.36-3.31-12.36-10.81-24.91-23.01-30.16-14.01-6.02-29.02-.03-40.35,8.77-9.27,7.21-16.83,16.33-23.3,26.08s-12.04,20.44-17.53,30.95-10.99,21.03-17.6,30.87c-6.12,9.11-13.32,17.65-22.09,24.33-1.07.82-1.64,2.15-.9,3.42.62,1.06,2.34,1.72,3.42.9h0Z" style="fill: #1d1d1b;"/>
  </g>
</svg>