<?xml version="1.0" encoding="UTF-8"?>
<svg id="Layer_2" data-name="Layer 2" xmlns="http://www.w3.org/2000/svg" viewBox="0 0 308.73 415.78">
  <g id="Layer_1-2" data-name="Layer 1">
    <path d="M74.38,138.28c-2.75-14.87-7.5-29.32-14.01-42.96s-14.82-26.39-24.65-37.86c-9.58-11.17-20.87-21.2-27.84-34.36-1.55-2.92-3.61-6.64-2.63-10.05.83-2.9,4.07-4.57,6.65-5.6,6.87-2.73,14.37-2.97,21.6-1.74,15.56,2.63,29.79,10.16,44.84,14.62,15.45,4.58,31.51,6.94,47.59,7.78s32.47.15,48.64-1.24c16.47-1.41,32.87-3.55,49.27-5.62s32.78-4.11,49.25-5.32c6.8-.5,14.28-1.59,20.94.39,2.87.85,5.49,2.49,7.12,5.05s2.26,5.7,2.4,8.75c.16,3.47-.19,6.93-.55,10.37-.46,4.38-.93,8.76-1.39,13.14-.94,8.84-1.87,17.69-2.81,26.53-1.86,17.52-3.71,35.05-5.57,52.57-.94,8.84-1.87,17.69-2.81,26.53-.44,4.11-.66,8.31-1.4,12.38-.54,2.99-1.63,5.71-3.71,7.79-3.61,3.58-9.15,4.66-14.24,4.72-6.25.07-12.22-1.43-18.15-3.29-14.6-4.59-28.38-11.76-40.54-21.05-10.86-8.3-21.41-20.68-36.04-21.48-5.66-.31-11.75,1.24-16.31,4.67-5.12,3.85-7.77,9.65-6.83,16.06,1.04,7.08,6.38,12.94,11.65,17.38s11.4,8.69,17.49,12.46c11.99,7.42,24.65,13.68,36.57,21.22,5.87,3.72,11.55,7.74,16.75,12.37,5.51,4.91,10.37,10.47,14.56,16.54,9,13.05,15.41,27.83,21.36,42.46,6.37,15.68,11.93,31.68,17.07,47.8,2.59,8.11,5.08,16.25,7.52,24.4,1.21,4.04,2.41,8.08,3.6,12.13,1.16,3.95,2.47,7.9,3.44,11.9.74,3.06,1.1,6.53-1.01,9.15-1.73,2.16-4.47,3.28-7.05,4.04-3.5,1.03-7.16,1.49-10.76,2.04-4.23.64-8.46,1.21-12.71,1.72-17.33,2.1-34.76,3.31-52.16,4.62-17.65,1.32-35.31,2.64-52.96,3.96s-35.14,2.63-52.71,3.94c-8.87.66-17.74,1.33-26.6,1.99-7.53.56-15.07,1.26-22.63,1.51-12.09.4-25.33-.12-36.02-6.45-5.18-3.06-9.37-7.52-11.96-12.97s-3.22-11.62-2.68-17.56c1.19-13.08,8.09-25.15,17.09-34.44,10.49-10.83,23.22-19.09,34.85-28.58,10.95-8.93,20.37-19.3,27.41-31.61,6.71-11.72,11.3-24.7,13.46-38.03s2.01-27.36-.84-40.77-8.29-25.98-16.28-36.89-18.49-20.11-31.03-25.43c-7.3-3.1-15.31-4.84-23.24-3.74-7.08.98-13.44,4.46-17.81,10.15-4.01,5.22-5.97,12.11-4.07,18.56s7.15,11.52,13.16,14.29c12.4,5.72,27.46,2.74,37.62-6.11,4.95-4.31,9-10.41,10.3-16.9,1.03-5.15,0-10.1-.09-15.26-.05-3.21-5.05-3.22-5,0,.08,5.14,1.28,10.26-.04,15.24-1.65,6.25-6.07,11.84-11.38,15.44-10.11,6.85-25.18,8.12-34.75-.47-4.5-4.04-6.67-9.79-4.93-15.71s6.38-10.58,11.88-12.76c13.61-5.4,29.33,1.68,40.19,9.95s18.55,19.02,24.06,30.95,8.42,25.32,8.74,38.58-1.9,26.81-6.43,39.43c-4.48,12.5-11.31,24.25-20.16,34.16-9.92,11.1-22.31,19.47-33.95,28.6-11.23,8.82-21.97,18.65-28.2,31.74-5.57,11.73-8.09,25.82-2.9,38.14s16.5,19.13,28.92,21.78c13.33,2.84,27.03,1.65,40.49.64,17.65-1.32,35.31-2.64,52.96-3.96,17.57-1.31,35.14-2.63,52.71-3.94,17.58-1.31,35.16-2.57,52.73-3.96,17.36-1.37,34.77-2.97,51.95-5.91,5.94-1.02,13.04-3.03,15.99-8.85,1.86-3.67,1.59-7.74.65-11.63s-2.27-7.95-3.44-11.9c-4.79-16.25-9.66-32.48-15.04-48.55-5.39-16.1-11.31-32.03-18.12-47.59-6.26-14.32-13.3-28.51-23.49-40.49-9.28-10.91-21.19-19.1-33.46-26.3-12.21-7.17-24.91-13.53-36.62-21.54-5.67-3.88-11.66-8.11-15.88-13.61-1.91-2.49-3.56-5.44-3.94-8.6-.33-2.73.27-5.24,1.71-7.48,2.62-4.06,7.97-6.44,12.77-6.93,6.31-.64,12.06,1.61,17.4,4.99,6.14,3.88,11.38,8.95,17.03,13.46,6.03,4.82,12.44,9.16,19.2,12.9s13.97,6.97,21.32,9.54c6.35,2.22,12.88,4.15,19.62,4.69,5.77.46,11.86-.08,17.1-2.71,2.58-1.29,4.78-3.18,6.48-5.5,2.13-2.9,3.01-6.39,3.48-9.9,1.17-8.72,1.89-17.52,2.82-26.27s1.86-17.52,2.78-26.28c1.86-17.61,3.73-35.21,5.59-52.82.93-8.74,1.86-17.48,2.78-26.22.7-6.68,1.14-14.17-2.47-20.16s-10.7-8.42-17.57-8.8c-3.62-.2-7.25.06-10.86.29-4.07.26-8.14.58-12.21.94-16.48,1.46-32.89,3.62-49.3,5.69-16.37,2.07-32.75,4.07-49.21,5.23s-32.35,1.44-48.47.07c-15.95-1.35-31.76-4.47-46.85-9.83S41.95.34,26.17.01c-3.75-.08-7.54.3-11.18,1.2S7.91,3.37,5.03,5.52C1.94,7.83-.13,11.13,0,15.1s2.05,7.79,3.94,11.25c7.21,13.18,18.56,23.35,28.23,34.64,9.73,11.36,17.86,24.09,24.24,37.62s10.53,26.85,13.15,41c.25,1.33,1.85,2.08,3.08,1.75,1.4-.38,1.99-1.74,1.75-3.08h0Z"/>
  </g>
</svg>