<?xml version="1.0" encoding="UTF-8"?>
<svg id="Layer_2" data-name="Layer 2" xmlns="http://www.w3.org/2000/svg" viewBox="0 0 299.93 428.59">
  <g id="Layer_1-2" data-name="Layer 1">
    <path d="M52.94,269c16.81-19.49,24.96-44.61,26.38-70.05,1.55-27.82-5.1-55.25-14.22-81.33-4.91-14.02-10.54-27.77-16.13-41.53-2.61-6.41-5.54-12.81-7.36-19.51-1.61-5.93-2.2-12.51,1.32-17.9,2.86-4.38,7.88-6.77,12.77-8.11,6.03-1.66,12.33-1.93,18.56-1.9,14.61.09,29.16,2.74,42.85,7.83,13.54,5.03,25.86,12.7,38.78,19.05s25.33,10.5,38.97,12.59c26.65,4.09,54.58.31,78.8-11.7,11.27-5.59,22.92-14.09,25.68-27.14,1.31-6.18.57-12.96-3.17-18.2s-9.17-8.29-15.12-9.85c-23.7-6.19-46.6,11.55-55.55,32.5-5.58,13.07-6.25,27.69-4.86,41.68,1.52,15.25,5.13,30.24,8.27,45.21,6.49,30.95,12.99,61.89,19.48,92.84,6.49,30.95,12.99,61.89,19.48,92.84,3.26,15.55,6.53,31.11,9.79,46.66,1.62,7.74,3.25,15.47,4.87,23.21,1.39,6.63,3.1,13.28,3.75,20.03.53,5.48.45,11.41-2.18,16.39-2.42,4.59-6.56,7.61-11.51,8.83-9.96,2.46-21.13-1.76-28.02-9.17-8.53-9.18-11.83-21.8-14.8-33.64-3.83-15.28-7.64-30.56-11.45-45.84-1.64-6.57-3.12-13.2-5.1-19.68-1.74-5.66-3.96-11.33-7.45-16.16s-8.25-8.79-13.96-11.03-12.21-2.55-18.32-1.64c-12.78,1.9-23.54,9.59-31.42,19.56-7.81,9.88-13.2,21.37-18.69,32.63-10.19,20.9-20.11,42.66-35.73,60.18-7.73,8.67-16.88,16.24-27.36,21.34-10.77,5.24-24.64,8.17-35.97,2.91-10.48-4.87-16.01-15.44-18.15-26.36-2.26-11.59-1.03-23.94,1.78-35.32,6.09-24.74,20.02-46.7,33.04-68.27,6.47-10.73,12.91-21.49,18.52-32.7,1.44-2.87-2.88-5.4-4.32-2.52-11.6,23.19-26.71,44.41-38.51,67.49-11.13,21.77-19.9,46.84-15.53,71.59,2,11.34,7.51,22.56,17.58,28.76,11.23,6.92,25.51,5.93,37.48,1.55,22.69-8.31,39.3-27.55,51.48-47.69,6.13-10.13,11.4-20.75,16.58-31.39s10.37-22.26,17.01-32.54,15.76-19.61,27.91-23.17c5.61-1.64,11.68-2.15,17.4-.8s10.3,4.35,13.93,8.74,5.83,9.77,7.54,15.11c2.02,6.33,3.46,12.85,5.07,19.29,3.83,15.35,7.67,30.7,11.5,46.05,3.07,12.3,6.44,24.95,14.57,34.99,7.06,8.72,18.26,14.07,29.57,13.33,5.46-.36,10.75-2.18,14.89-5.83,4.54-4,6.85-9.7,7.58-15.59.76-6.13-.16-12.38-1.33-18.4-1.44-7.4-3.08-14.76-4.62-22.13-6.49-30.95-12.99-61.89-19.48-92.84-6.49-30.95-12.99-61.89-19.48-92.84-3.25-15.47-6.49-30.95-9.74-46.42s-6.71-30.28-9.31-45.55c-2.46-14.46-3.63-29.54.1-43.89,2.82-10.84,9-20.73,17.5-28.01,8.41-7.21,19.39-11.45,30.54-10.27,5.67.6,11.53,2.86,15.42,7.15s4.81,10.14,3.66,15.56c-2.68,12.65-14.74,20.13-25.63,25.23-11.91,5.58-24.86,9.15-37.91,10.66-13.22,1.53-26.71,1.12-39.79-1.42-6.62-1.28-13.14-3.09-19.47-5.42-6.55-2.41-12.83-5.48-19.01-8.69-12.92-6.72-25.57-13.99-39.5-18.47-14.02-4.51-28.88-6.59-43.59-6.14-11.23.35-25.11,2.49-31.4,13.07-7.26,12.22.5,27.24,5.23,38.88,11.12,27.35,22.64,54.89,28.13,84.04,4.66,24.79,4.32,50.95-4.29,74.87-4.05,11.25-10.05,21.82-17.86,30.88-.88,1.02-1,2.53,0,3.54.9.9,2.65,1.03,3.54,0h0Z" style="fill: #1d1d1b;"/>
  </g>
</svg>