<svg width="519" height="303" viewBox="0 0 519 303" fill="none" xmlns="http://www.w3.org/2000/svg">
<path d="M279.719 57.1162C320.651 56.06 364.931 79.4691 361.812 126.256C360.443 146.782 349.685 159.41 334.65 172.379C342.397 172.778 356.442 178.732 362.387 183.898C366.14 187.159 368.451 191.327 368.768 196.347C369.123 201.962 366.735 206.713 363.091 210.801C345.248 230.821 291.883 239.794 266.321 242.794C256.146 243.988 245.962 244.622 235.741 245.23C214.124 245.852 191.435 245.646 170.513 239.645C159.487 236.483 147.669 229.354 152.387 216.007C157.998 200.132 176.166 189.954 190.28 182.601C173.77 173.879 157.795 151.785 157.859 132.621C157.984 95.5876 192.779 74.7599 224.743 66.3555C243.815 61.3408 259.991 57.7159 279.719 57.1162Z" fill="black"/>
<path d="M205.975 180.288C209.194 179.888 215.136 179.609 217.333 182.332C218.062 185.198 212.205 186.046 210.141 186.328C205.123 186.244 202.171 184.8 197.742 182.783C200.693 181.667 202.884 180.884 205.975 180.288Z" fill="white"/>
<path d="M322.502 174.911C323.115 174.793 325.565 174.763 326.326 174.738C321.019 178.274 319.782 180.711 313.059 182.038L312.925 182.037C311.465 182.023 310.913 182.148 309.932 181.153C309.646 176.615 319.182 175.228 322.502 174.911Z" fill="white"/>
</svg>
