<svg width="507" height="294" viewBox="0 0 507 294" fill="none" xmlns="http://www.w3.org/2000/svg">
<g clip-path="url(#clip0_9039_2199)">
<path d="M242.584 28.9893C245.794 29.1856 247.467 30.1274 248.739 31.4424C249.392 32.1173 249.95 32.9013 250.562 33.7822C251.168 34.6555 251.822 35.6184 252.649 36.6006L252.771 36.7461L252.96 36.7734C253.306 36.8238 253.696 36.866 254.082 36.9043L255.184 37.0088C259.751 37.4522 262.686 38.9674 264.204 41.2842C265.724 43.6043 265.914 46.8686 264.67 51.0195L264.53 51.4863L264.994 51.6387C265.74 51.8824 266.48 52.1394 267.219 52.4111V52.4121C270.484 53.6319 272.749 54.8106 274.555 56.4434C276.358 58.0741 277.737 60.1897 279.174 63.3408L279.429 63.8975L279.924 63.5371C281.956 62.0585 285.355 60.2006 287.688 59.0459H287.689C310.311 47.8139 337.184 45.7107 361.221 53.4756C368.906 55.958 375.812 60.9192 377.138 69.1318C377.804 73.258 376.179 76.066 374.823 80.0215L374.707 80.3613L374.993 80.5801C376.204 81.5076 377.89 82.1635 379.374 82.8535C380.813 83.5226 382.093 84.2334 382.909 85.2578L383.065 85.4668C384.903 88.0704 385.178 91.2851 385.127 94.7344C385.077 98.1278 384.702 101.795 385.383 105.02C386.284 109.282 387.826 112.992 389.289 116.85L389.909 118.515C391.133 121.886 392.031 125.365 392.592 128.906L392.699 129.615C393.47 135.482 393.48 141.423 392.729 147.292C389.674 170.794 374.832 190.116 356.412 204.295C347.274 211.328 338.378 216.018 329.104 217.677C319.841 219.334 310.155 217.975 299.418 212.83C298.387 212.336 295.646 210.74 292.983 209.225C291.661 208.472 290.364 207.743 289.328 207.193C288.811 206.919 288.352 206.685 287.985 206.515C287.802 206.43 287.636 206.359 287.494 206.305C287.361 206.254 287.216 206.207 287.087 206.189L286.904 206.165L286.749 206.266C286.257 206.585 285.773 207.108 285.314 207.699C284.849 208.298 284.381 209.005 283.928 209.725C283.005 211.189 282.161 212.672 281.446 213.598C279.804 215.696 277.605 217.29 275.099 218.197L275.096 218.199C270.314 219.973 266.3 219.161 262.252 217.93C258.228 216.705 254.096 215.027 249.303 215.292C248.08 215.36 246.754 215.929 245.592 216.698C244.424 217.471 243.367 218.48 242.69 219.494L242.688 219.497C239.685 224.062 239.434 229.221 240.085 234.363C240.41 236.935 240.964 239.52 241.521 242.038C242.081 244.564 242.644 247.016 242.999 249.355C243.648 253.634 243.033 256.102 241.471 257.645C239.869 259.225 237.157 259.966 233.25 260.455C219.326 262.099 204.084 257.445 194.651 246.835C193.203 245.206 191.741 243.11 190.134 241.049C188.549 239.018 186.838 237.042 184.953 235.791C182.203 233.966 179.475 233.604 176.862 233.13C174.244 232.655 171.687 232.065 169.048 229.874V229.873L169.04 229.867L168.668 229.558C166.827 227.962 165.227 225.616 163.461 223.307C161.613 220.89 159.583 218.52 156.961 217.467C155.398 216.839 153.589 217.025 151.774 217.458C150.859 217.677 149.92 217.965 148.986 218.261C148.047 218.559 147.118 218.864 146.196 219.127C144.345 219.656 142.617 219.988 141.112 219.75C139.649 219.519 138.357 218.743 137.359 216.938C136.574 215.516 136.126 213.597 135.801 211.558C135.639 210.543 135.509 209.515 135.382 208.517C135.255 207.522 135.129 206.555 134.976 205.683C134.436 202.623 134.112 199.258 133.854 196.14L133.853 196.134L133.79 195.279C133.77 194.956 133.752 194.596 133.73 194.212C133.689 193.449 133.64 192.594 133.566 191.751C133.493 190.91 133.394 190.069 133.249 189.335C133.107 188.614 132.911 187.94 132.618 187.47C132.322 186.994 131.814 186.671 131.278 186.439C130.733 186.204 130.093 186.035 129.454 185.905C128.812 185.775 128.149 185.68 127.555 185.599C127.101 185.537 126.696 185.483 126.357 185.429L126.043 185.373C124.212 185.015 122.03 184.639 120.487 183.748C119.73 183.311 119.171 182.772 118.879 182.091C118.589 181.415 118.533 180.527 118.912 179.329C119.25 178.26 119.977 177.376 120.947 176.89C122.529 176.097 124.171 175.44 125.841 174.792C127.505 174.146 129.201 173.507 130.857 172.756L130.856 172.755C138.473 169.326 145.945 165.587 153.254 161.545L153.779 161.254L153.398 160.79C149.173 155.637 143.707 152.793 138.211 149.337L123.87 140.314L123.867 140.312L123.381 140.022C122.85 139.714 122.194 139.351 121.493 138.958C120.551 138.429 119.514 137.837 118.536 137.214C117.556 136.589 116.651 135.945 115.969 135.316C115.269 134.671 114.881 134.113 114.798 133.671C114.582 132.517 115.048 131.58 116.037 130.77C117.046 129.943 118.557 129.293 120.278 128.782C123.716 127.763 127.77 127.36 129.777 127.089L130.279 127.021L130.205 126.521C129.279 120.292 131.024 116.155 134.066 112.878C137.152 109.555 141.562 107.116 146.045 104.317L146.329 104.14L146.272 103.809C144.467 93.2851 147.705 86.3318 149.677 76.2441C150.057 74.3009 149.938 71.6495 149.869 69.0938C149.799 66.4874 149.78 63.9728 150.297 62.1533C150.339 62.0063 150.44 61.8801 150.663 61.7754C150.9 61.6643 151.248 61.5928 151.708 61.5752C152.626 61.5402 153.835 61.7227 155.11 62.0156C157.654 62.6 160.302 63.587 161.051 63.9277L161.579 64.168L161.739 63.6104C162.677 60.3459 163.895 57.5692 165.705 56.0781C166.593 55.3463 167.626 54.922 168.863 54.9033C170.111 54.8846 171.603 55.2778 173.396 56.248L173.912 56.5273L174.105 55.9736C174.32 55.3592 174.509 54.6808 174.694 53.9922C174.881 53.2978 175.063 52.5936 175.27 51.9033C175.685 50.5129 176.174 49.2624 176.897 48.4014C177.477 47.7121 178.127 47.4914 178.824 47.541C179.557 47.5933 180.376 47.9488 181.227 48.4961C182.932 49.5938 184.539 51.3105 185.546 52.2725L185.971 52.6777L186.304 52.1943C187.801 50.021 188.969 48.8756 189.92 48.3936C190.383 48.1589 190.784 48.0871 191.146 48.1201C191.511 48.1535 191.876 48.2974 192.26 48.5547C193.048 49.0835 193.829 50.0282 194.744 51.2227C195.641 52.3931 196.648 53.7737 197.854 55.0586C200.439 57.8111 202.89 60.6997 205.333 63.6074C207.773 66.5121 210.207 69.4378 212.744 72.248L213.003 72.5352L213.347 72.3564C215.215 71.3819 216.926 69.7601 218.446 68.5166L218.445 68.5156C224.096 64.0041 228.984 57.3651 230.526 50.1357C231.052 47.6712 231.409 45.3347 231.805 43.2168C232.204 41.0824 232.647 39.143 233.351 37.3848C234.737 33.9201 237.156 31.1045 242.414 29.0068C242.497 28.9917 242.528 28.9859 242.584 28.9893Z" stroke="black"/>
</g>
<defs>
<clipPath id="clip0_9039_2199">
<rect width="507" height="294" fill="white"/>
</clipPath>
</defs>
</svg>
