<svg width="514" height="298" viewBox="0 0 514 298" fill="none" xmlns="http://www.w3.org/2000/svg">
<g clip-path="url(#clip0_9039_2225)">
<path d="M0 0H4.17467L4.25882 294.475L359.035 294.548L464.55 294.545L498.196 294.53C501.865 294.528 510.772 294.274 514 294.563V298H0V0Z" fill="#FCF7EE"/>
<path d="M396.928 44.0136C397.731 43.9209 398.539 43.8429 399.35 43.8391C404.854 43.8137 409.931 45.9248 413.859 49.785C423.526 59.2932 431.922 90.7436 431.999 104.267C432.125 120.392 425.825 135.904 414.494 147.374C404.407 157.507 390.008 163.788 375.778 164.644C372.29 164.861 368.788 164.788 365.312 164.428C364.765 164.366 363.945 164.262 363.387 164.178L362.657 164.59C361.445 164.275 359.221 163.405 358.122 163.165C348.304 161.019 338.553 156.815 328.411 156.859C321.658 156.878 315.024 158.649 309.159 162.001C281.923 177.669 285.964 218.284 265.015 239.444C248.995 255.623 224.5 252.158 208.793 237.49C206.863 235.687 205.332 233.367 203.477 231.554C193.655 221.952 181.921 236.004 171.457 236.269C166.739 236.384 163.375 232.051 162.813 227.687C161.643 218.586 169.676 213.036 169.861 204.293C169.842 204.031 169.812 203.769 169.771 203.509C169.35 200.758 167.839 198.443 165.52 196.834C153.448 188.57 140.106 198.971 127.447 200.744C88.7633 206.16 77.2364 175.099 98.3258 145.646C104.29 137.47 111.855 130.592 120.559 125.431C147.431 109.566 171.453 118.032 200.181 114.117C226.974 110.466 221.015 91.8864 232.677 74.2632C237.139 67.5212 245.6 61.7151 253.058 58.7368C268.117 52.4158 287.173 54.2631 302.069 60.2241C317.652 66.461 326.459 72.0876 344.343 68.9981C351.852 67.6372 359.04 64.8776 365.531 60.8627C375.984 54.4755 384.394 46.0531 396.928 44.0136Z" fill="black"/>
</g>
<defs>
<clipPath id="clip0_9039_2225">
<rect width="514" height="298" fill="white"/>
</clipPath>
</defs>
</svg>
