<svg xmlns="http://www.w3.org/2000/svg" viewBox="10 24 90 76" fill="none" stroke="#3D233B" stroke-linecap="round" stroke-linejoin="round" role="img" aria-label="City">
  <!-- Three buildings of varying height with window dots -->
  <path stroke-width="2" d="M 18 92 L 18 56 L 40 56 L 40 92"/>
  <path stroke-width="2" d="M 40 92 L 40 32 L 66 32 L 66 92"/>
  <path stroke-width="2" d="M 66 92 L 66 48 L 92 48 L 92 92"/>
  <path stroke-width="1.4" d="M 24 68 L 28 68"/>
  <path stroke-width="1.4" d="M 32 68 L 36 68"/>
  <path stroke-width="1.4" d="M 24 78 L 28 78"/>
  <path stroke-width="1.4" d="M 32 78 L 36 78"/>
  <path stroke-width="1.4" d="M 46 44 L 50 44"/>
  <path stroke-width="1.4" d="M 56 44 L 60 44"/>
  <path stroke-width="1.4" d="M 46 56 L 50 56"/>
  <path stroke-width="1.4" d="M 56 56 L 60 56"/>
  <path stroke-width="1.4" d="M 46 68 L 50 68"/>
  <path stroke-width="1.4" d="M 56 68 L 60 68"/>
  <path stroke-width="1.4" d="M 72 60 L 76 60"/>
  <path stroke-width="1.4" d="M 82 60 L 86 60"/>
  <path stroke-width="1.4" d="M 72 72 L 76 72"/>
  <path stroke-width="1.4" d="M 82 72 L 86 72"/>
</svg>
