<svg xmlns="http://www.w3.org/2000/svg" viewBox="0 0 130 130" fill="none" stroke="#3D233B" stroke-linecap="round" stroke-linejoin="round" role="img" aria-label="Ashwagandha">
  <!-- Berry cluster on a stem — strength, vitality, root adaptogen -->
  <path stroke-width="2" d="M 65 118 C 65 90 60 70 55 50"/>
  <path stroke-width="2" d="M 55 50 C 42 50 42 35 55 35 C 68 35 68 50 55 50 Z"/>
  <path stroke-width="2" d="M 78 55 C 65 55 65 40 78 40 C 91 40 91 55 78 55 Z"/>
  <path stroke-width="2" d="M 68 75 C 55 75 55 60 68 60 C 81 60 81 75 68 75 Z"/>
  <path stroke-width="1.4" d="M 65 95 C 50 92 44 82 48 76"/>
  <path stroke-width="1.4" d="M 65 95 C 80 92 86 82 82 76"/>
</svg>
