<svg xmlns="http://www.w3.org/2000/svg" viewBox="0 0 130 130" fill="none" stroke="#3D233B" stroke-linecap="round" stroke-linejoin="round" role="img" aria-label="Bhringraj">
  <!-- Small daisy-like flower — hair growth, scalp health -->
  <path stroke-width="2" d="M 65 118 C 65 100 65 82 65 70"/>
  <path stroke-width="1.4" d="M 65 95 C 55 92 48 88 46 82"/>
  <path stroke-width="1.4" d="M 65 95 C 75 92 82 88 84 82"/>
  <path stroke-width="2" d="M 65 50 C 60 42 60 36 65 32 C 70 36 70 42 65 50 Z"/>
  <path stroke-width="2" d="M 78 56 C 84 52 88 48 88 42 C 82 42 76 46 78 56 Z"/>
  <path stroke-width="2" d="M 82 68 C 90 68 94 72 94 78 C 88 80 82 76 82 68 Z"/>
  <path stroke-width="2" d="M 65 70 C 70 78 70 84 65 88 C 60 84 60 78 65 70 Z"/>
  <path stroke-width="2" d="M 52 68 C 44 68 40 72 40 78 C 46 80 52 76 52 68 Z"/>
  <path stroke-width="2" d="M 52 56 C 46 52 42 48 42 42 C 48 42 54 46 52 56 Z"/>
  <path stroke-width="1.4" d="M 65 58 C 60 58 60 62 65 62 C 70 62 70 58 65 58 Z"/>
</svg>
