<svg xmlns="http://www.w3.org/2000/svg" viewBox="0 0 130 130" fill="none" stroke="#3D233B" stroke-linecap="round" stroke-linejoin="round" role="img" aria-label="Manjishtha">
  <!-- Root with branching tendrils and leaf cluster — blood purifier, skin brightener -->
  <path stroke-width="2" d="M 65 25 C 62 45 58 70 55 95 C 54 105 52 112 48 115"/>
  <path stroke-width="1.4" d="M 60 55 C 50 58 42 65 38 72"/>
  <path stroke-width="1.4" d="M 58 70 C 72 72 82 78 88 86"/>
  <path stroke-width="1.4" d="M 56 85 C 68 90 78 98 82 108"/>
  <path stroke-width="1.4" d="M 54 100 C 48 105 45 110 42 115"/>
  <path stroke-width="1.4" d="M 65 25 C 60 18 56 15 52 16 C 54 22 58 25 64 25"/>
  <path stroke-width="1.4" d="M 65 25 C 70 18 74 15 78 16 C 76 22 72 25 66 25"/>
</svg>
