<svg xmlns="http://www.w3.org/2000/svg" viewBox="0 0 130 130" fill="none" stroke="#3D233B" stroke-linecap="round" stroke-linejoin="round" role="img" aria-label="Neem">
  <!-- Branch with compound leaflets — purifying, antibacterial -->
  <path stroke-width="2" d="M 30 100 C 50 90 70 70 95 45"/>
  <path stroke-width="1.4" d="M 40 92 C 36 82 36 75 40 72 C 46 78 46 88 42 94"/>
  <path stroke-width="1.4" d="M 50 82 C 46 72 46 64 50 62 C 56 68 56 78 52 84"/>
  <path stroke-width="1.4" d="M 62 70 C 58 60 58 52 62 50 C 68 56 68 66 64 72"/>
  <path stroke-width="1.4" d="M 75 58 C 71 48 71 40 75 38 C 81 44 81 54 77 60"/>
  <path stroke-width="1.4" d="M 55 98 C 60 92 68 92 72 96 C 66 102 58 102 54 100"/>
  <path stroke-width="1.4" d="M 68 88 C 72 82 80 82 84 86 C 78 92 70 92 66 90"/>
</svg>
