<svg xmlns="http://www.w3.org/2000/svg" viewBox="0 0 130 130" fill="none" stroke="#3D233B" stroke-linecap="round" stroke-linejoin="round" role="img" aria-label="Reetha">
  <!-- Soapnut cluster on a stem — natural cleanser, saponin-rich -->
  <path stroke-width="2" d="M 65 25 C 62 40 60 55 58 65"/>
  <path stroke-width="2" d="M 45 78 C 30 78 28 95 40 100 C 52 104 60 95 58 85 C 56 78 52 76 45 78 Z"/>
  <path stroke-width="2" d="M 78 70 C 65 72 62 85 72 92 C 82 96 90 88 88 78 C 86 70 82 68 78 70 Z"/>
  <path stroke-width="2" d="M 62 95 C 50 98 48 112 58 115 C 70 118 78 110 75 100 C 72 95 68 94 62 95 Z"/>
</svg>
