<svg xmlns="http://www.w3.org/2000/svg" viewBox="0 0 130 130" fill="none" stroke="#3D233B" stroke-linecap="round" stroke-linejoin="round" role="img" aria-label="Sandalwood">
  <!-- Tree cross-section with concentric rings — calming, sacred wood -->
  <path stroke-width="2" d="M 65 30 C 32 30 28 95 55 100 C 85 105 100 85 98 60 C 96 42 85 30 65 30 Z"/>
  <path stroke-width="1.4" d="M 65 42 C 44 42 40 88 58 92 C 80 96 90 80 88 62 C 86 50 80 42 65 42"/>
  <path stroke-width="1.4" d="M 65 54 C 54 54 50 82 62 84 C 76 86 82 76 80 66 C 78 58 74 54 65 54"/>
  <path stroke-width="1.4" d="M 65 66 C 60 66 58 76 64 76 C 70 76 72 70 70 68"/>
</svg>
