<svg xmlns="http://www.w3.org/2000/svg" viewBox="0 0 130 130" fill="none" stroke="#3D233B" stroke-linecap="round" stroke-linejoin="round" role="img" aria-label="Shatavari">
  <!-- Fern-like frond — feminine nourishment, asparagus family -->
  <path stroke-width="2" d="M 65 118 C 65 80 60 50 58 25"/>
  <path stroke-width="1.4" d="M 63 100 C 48 98 38 94 30 88"/>
  <path stroke-width="1.4" d="M 62 85 C 48 82 38 76 32 68"/>
  <path stroke-width="1.4" d="M 61 68 C 48 64 40 56 36 48"/>
  <path stroke-width="1.4" d="M 60 52 C 50 48 44 40 42 32"/>
  <path stroke-width="1.4" d="M 65 100 C 80 98 90 94 98 88"/>
  <path stroke-width="1.4" d="M 65 85 C 80 82 90 76 96 68"/>
  <path stroke-width="1.4" d="M 65 68 C 78 64 86 56 90 48"/>
  <path stroke-width="1.4" d="M 64 52 C 74 48 80 40 82 32"/>
</svg>
