<svg preserveAspectRatio="none" width="100%" height="100%" overflow="visible" style="display: block;" viewBox="0 0 121.001 36.1276" fill="none" xmlns="http://www.w3.org/2000/svg">
<g id="Group">
<path id="Vector" d="M14.5295 12.2839H12.0355H1.06044C0.515168 12.2839 0.0741875 12.7257 0.0741875 13.272V35.1396C0.0741875 35.6858 0.515168 36.1276 1.06044 36.1276H11.9184H14.4746C15.0198 36.1276 15.4608 35.6858 15.4608 35.1396V34.4815C15.4608 33.9352 15.0198 33.4934 14.4746 33.4934H12.0062H2.70358V25.1966H10.8973H12.7473H12.7564C13.2962 25.1911 13.7335 24.753 13.7335 24.2104V23.5523C13.7335 23.006 13.2925 22.5642 12.7473 22.5642H12.7125H10.8534H2.70358V14.92H11.9184H14.5295C15.0747 14.92 15.5157 14.4782 15.5157 13.9319V13.2738C15.5157 12.7275 15.0747 12.2839 14.5295 12.2839Z" fill="var(--fill-0, #FFEFDE)"/>
<path id="Vector_2" d="M49.1159 13.0648C48.7664 12.6451 48.1461 12.5901 47.7271 12.9384L47.4746 13.1492C46.2193 14.1977 44.2432 15.4241 41.9578 15.3086C41.268 15.2738 40.5983 15.1235 39.9633 14.8632C39.6102 14.7183 39.2497 14.5167 38.8691 14.304C38.1189 13.8843 37.2681 13.4076 36.2269 13.25C33.7494 12.8724 31.2023 14.0474 29.056 16.5606L28.8419 16.81C28.4888 17.2242 28.5363 17.8475 28.9499 18.2031L29.4494 18.6303C29.8629 18.9841 30.4851 18.9364 30.84 18.5221L31.0541 18.271C31.9416 17.2316 33.7439 15.5341 35.8317 15.8531C36.4007 15.9392 36.9515 16.2472 37.5864 16.6028C37.6798 16.656 37.7749 16.7091 37.8719 16.7605V35.1286C37.8719 35.6748 38.3129 36.1166 38.8581 36.1166H39.515C40.0603 36.1166 40.5013 35.6748 40.5013 35.1286V17.7705C40.9368 17.8603 41.3777 17.9172 41.826 17.9392C44.3072 18.0638 46.8433 17.1069 49.1598 15.1711L49.4123 14.9603C49.8313 14.6102 49.8862 13.9887 49.5386 13.569L49.1159 13.0648Z" fill="var(--fill-0, #FFEFDE)"/>
<path id="Vector_3" d="M120.902 34.7106L110.39 12.8339C110.225 12.4929 109.881 12.2748 109.503 12.2748H109.098C108.719 12.2748 108.374 12.4929 108.211 12.8339L97.6986 34.7106C97.3838 35.3669 97.8596 36.1258 98.586 36.1258H99.3161C99.6949 36.1258 100.041 35.9076 100.204 35.5667L101.497 32.839C102.266 31.3541 105.389 26.3423 111.19 26.489C111.201 26.489 111.212 26.489 111.223 26.489H114.033L118.395 35.5667C118.56 35.9095 118.904 36.1258 119.283 36.1258H120.013C120.741 36.1276 121.217 35.3669 120.902 34.7106ZM111.239 23.8566C109.034 23.8052 106.983 24.3075 105.111 25.3542L109.299 16.6376L112.769 23.8566H111.239Z" fill="var(--fill-0, #FFEFDE)"/>
<path id="Vector_4" d="M82.5698 12.2839H81.9129C81.3676 12.2839 80.9266 12.7257 80.9266 13.272V19.3269C80.9266 20.9877 78.6742 21.8309 77.1555 22.0729L68.1163 23.3103C67.0935 23.4349 66.5409 23.5981 65.809 24.0949V13.272C65.809 12.7257 65.368 12.2839 64.8227 12.2839H64.1659C63.6206 12.2839 63.1796 12.7257 63.1796 13.272V35.1322C63.1796 35.6785 63.6206 36.1203 64.1659 36.1203H64.8246C65.3698 36.1203 65.8108 35.6785 65.8108 35.1322V28.6906C65.8108 27.0426 66.9014 26.1352 68.1914 25.9592L77.5123 24.6833C78.6101 24.533 79.8544 24.0985 80.9266 23.4808V35.1322C80.9266 35.6785 81.3676 36.1203 81.9129 36.1203H82.5698C83.1151 36.1203 83.556 35.6785 83.556 35.1322V13.272C83.556 12.7275 83.1132 12.2839 82.5698 12.2839Z" fill="var(--fill-0, #FFEFDE)"/>
<path id="Vector_5" d="M0.921414 3.92479C1.14099 4.17959 1.52524 4.20892 1.77958 3.98895L2.22788 3.60215C2.90124 3.02105 4.21868 2.10631 5.48307 2.50227C5.81426 2.60676 6.13996 2.85973 6.5169 3.15304C6.69805 3.29419 8.50404 4.60671 9.23596 4.83586C9.67876 4.97334 10.1325 5.043 10.5955 5.043C11.9733 5.043 13.417 4.43623 14.7747 3.26303L15.223 2.87623C15.4773 2.65625 15.5066 2.27129 15.2871 2.01649L14.513 1.11825C14.2935 0.863443 13.9092 0.834112 13.6549 1.05409L13.2066 1.44088C12.5332 2.02199 11.2176 2.93673 9.9514 2.54077C9.62021 2.43628 9.29451 2.1833 8.91758 1.89C8.73643 1.74885 6.93225 0.436321 6.19851 0.207179C4.44008 -0.344596 2.47307 0.214514 0.659756 1.78002L0.211456 2.16681C-0.0428837 2.38678 -0.0721558 2.77174 0.147418 3.02655L0.921414 3.92479Z" fill="var(--fill-0, #FFEFDE)"/>
</g>
</svg>
