<svg preserveAspectRatio="none" width="100%" height="100%" overflow="visible" style="display: block;" viewBox="0 0 13 16" fill="none" xmlns="http://www.w3.org/2000/svg">
<path id="Vector (Stroke)" d="M7.5 0C7.5 0.269447 7.58402 0.639336 7.76465 1.09082C7.9408 1.53107 8.18444 1.99062 8.44531 2.42285H8.44629C9.0381 3.40284 9.79398 4.28183 10.665 5.04395L11.0459 5.36328L11.3574 5.60742C11.6696 5.84567 11.9826 6.06317 12.2734 6.23047C12.6982 6.4748 12.9341 6.5293 13 6.5293V8.5293C12.3788 8.5293 11.7548 8.23906 11.2764 7.96387C10.7611 7.66748 10.2416 7.28455 9.78906 6.91895C8.94224 6.23538 8.16864 5.451 7.5 4.5752V16H5.5V4.57617C4.83145 5.45199 4.05728 6.23637 3.20898 6.91992C2.75721 7.28519 2.23831 7.66761 1.72363 7.96387C1.24503 8.23932 0.621865 8.5293 0 8.5293V6.5293C0.0669746 6.5293 0.302647 6.47448 0.726563 6.23047C1.11387 6.00751 1.54076 5.69596 1.95215 5.36328L1.9541 5.3623C2.98727 4.52976 3.87848 3.54336 4.55371 2.42383C4.81499 1.99056 5.05908 1.53033 5.23535 1.08984C5.4159 0.638605 5.5 0.269325 5.5 0H7.5Z" fill="var(--fill-0, #FCFCFC)"/>
</svg>
