<svg preserveAspectRatio="none" width="100%" height="100%" overflow="visible" style="display: block;" viewBox="0 0 24 17" fill="none" xmlns="http://www.w3.org/2000/svg">
<path id="Vector" d="M23.5118 2.67279C23.3752 2.16007 23.1083 1.69249 22.7376 1.31658C22.3669 0.940675 21.9053 0.669551 21.3989 0.530197C19.521 0.00850168 12.0083 9.21641e-06 12.0083 9.21641e-06C12.0083 9.21641e-06 4.49682 -0.00848374 2.61775 0.49016C2.11162 0.635927 1.65102 0.910885 1.28017 1.28864C0.90933 1.66639 0.640691 2.13425 0.500048 2.64731C0.00479858 4.54725 1.75694e-06 8.48787 1.75694e-06 8.48787C1.75694e-06 8.48787 -0.00479483 12.4479 0.486857 14.3284C0.762662 15.3682 1.57209 16.1895 2.60096 16.4698C4.49802 16.9915 11.9903 17 11.9903 17C11.9903 17 19.503 17.0085 21.3809 16.5111C21.8875 16.3719 22.3495 16.1014 22.7211 15.7263C23.0927 15.3512 23.3611 14.8844 23.4998 14.3721C23.9962 12.4734 23.9998 8.53397 23.9998 8.53397C23.9998 8.53397 24.0238 4.57273 23.5118 2.67279ZM9.60521 12.1385L9.6112 4.85905L15.8552 8.50485L9.60521 12.1385Z" fill="var(--fill-0, #BD4800)"/>
</svg>
