<?xml version="1.0" encoding="UTF-8"?>
<svg id="Layer_2" data-name="Layer 2" xmlns="http://www.w3.org/2000/svg" viewBox="0 0 256.39 205.05">
  <g id="Layer_1-2" data-name="Layer 1">
    <path d="M221.21,3.99c-12.91-6.24-27.72-4.59-40.52,1.07s-23.02,16.62-33.83,25.92c-5.08,4.37-10.44,8.49-16.43,11.53-5.98,3.03-12.52,4.65-19.24,4.47-14.38-.38-27.59-7.53-41.15-11.51-6.83-2.01-14.04-3.39-21.19-2.88-6.5.46-12.79,2.33-18.57,5.31-11.58,5.99-20.85,16.4-25.92,28.36-5.44,12.84-5.6,27.28-1.62,40.57,4.07,13.59,12.2,25.98,22.81,35.38,11.33,10.04,26.92,16.15,34.74,29.74,3.21,5.59,4.95,12.68,2.15,18.79-2.38,5.21-7.57,9.85-13.62,9.35s-9.74-5.89-10.9-11.18c-1.39-6.33,1.55-12.82,5.66-17.53,4.76-5.47,11.2-9.45,18.06-11.73,7.28-2.42,14.92-2.83,22.47-1.59,15.4,2.53,29.92,9.94,45.79,9.47,14.35-.43,27.57-6.97,38.5-15.94,5.52-4.53,10.49-9.73,14.92-15.34s8.24-12.06,13.56-17.05c5.19-4.86,11.78-7.16,18.84-7.26,7.5-.1,14.87,1.82,21.96,4.08,3.29,1.05,6.83,1.99,9.89,3.63,2.52,1.35,4.18,3.33,3.78,6.08-.32,2.14-1.96,4.52-4.04,5.76-2.53,1.51-5.71,1.27-8.43.22-6.22-2.4-10.31-8.73-12.17-14.86-1.95-6.45-1.9-13.4-.82-20.01,2.55-15.62,10.79-29.52,14.31-44.88,2.74-11.95,2.92-26.42-4.81-36.67-3.71-4.92-8.72-8.55-14.19-11.3-2.87-1.45-5.4,2.87-2.52,4.32,5.31,2.68,10.38,6.26,13.58,11.2,2.94,4.55,4.22,9.83,4.51,15.22.9,16.38-6.56,31.06-11.83,46.12-4.73,13.49-7.5,29.43-.89,42.79,3.18,6.42,9.07,12.52,16.43,13.69,3.46.55,7.09.12,10.01-1.93,2.65-1.87,4.76-4.62,5.55-7.8s.09-6.62-2.1-9.25c-2.4-2.88-6.19-4.16-9.61-5.35-7.4-2.58-14.93-4.88-22.74-5.75-7.51-.83-15.32,0-22,3.75s-11.31,10.06-15.71,16.17c-8.4,11.64-18.41,22.25-31.23,29.03-5.98,3.16-12.56,5.42-19.31,6.1-7.8.78-15.44-.58-22.96-2.58s-15.22-4.66-23.04-6.15-16.07-1.7-23.98.35c-14.08,3.64-29.42,14.62-30.73,30.26-.54,6.43,2.28,13.4,7.37,17.42,5.55,4.38,13.04,4.56,18.93.7s9.7-10.55,9.89-17.59c.21-7.69-3.3-14.87-8.02-20.75-5.05-6.3-11.8-10.94-18.42-15.43s-12.59-8.71-17.93-14.3c-9.76-10.23-16.66-23.3-18.86-37.31-2.09-13.33.83-26.81,8.43-37.96,7.15-10.48,18.21-18.52,30.79-20.86,14.28-2.64,28.25,3.57,41.4,8.24,6.97,2.47,14.07,4.68,21.46,5.41s14.34-.28,20.97-2.99c13.33-5.45,23.58-15.95,34.12-25.39,5.38-4.82,10.91-9.27,17.39-12.56,6.11-3.1,12.86-5.24,19.72-5.75,6.42-.48,12.95.43,18.78,3.25,1.21.59,2.7.33,3.42-.9.64-1.1.32-2.83-.9-3.42h0Z" style="fill: #1d1d1b;"/>
  </g>
</svg>