<?xml version="1.0" encoding="UTF-8"?>
<svg id="Layer_2" data-name="Layer 2" xmlns="http://www.w3.org/2000/svg" viewBox="0 0 195.74 145.84">
  <g id="Layer_1-2" data-name="Layer 1">
    <path d="M5.77,68.32c3.02-8.31,6.12-16.62,10.1-24.53s8.33-14.75,14.51-20.52,13.93-9.57,22.34-10.59,17.67.59,25.83,3.87c4.18,1.68,8.18,3.88,11.92,6.39,4.06,2.73,7.86,5.83,12.06,8.34s8.74,4.22,13.63,4.71,9.58-.28,14.1-1.69c9.68-3.02,18.25-8.71,26.7-14.15,4.57-2.94,9.2-5.8,13.88-8.58,4.22-2.5,8.74-5.75,13.7-6.47,1.69-.25,4.14-.27,5.33,1.2.99,1.22.97,2.94.78,4.43-.27,2.12-1,4.18-1.66,6.2-.81,2.47-1.48,4.99-2.01,7.54-2.17,10.3-2.39,20.85-3.07,31.31-.65,10.01-1.72,20.31-5.69,29.62-3.11,7.29-8.55,14.45-16.06,17.57-3.71,1.54-7.66,1.78-11.56.88-4.49-1.04-8.67-3.07-12.94-4.72-4.25-1.65-8.73-2.91-13.33-2.7s-8.67,1.55-12.56,3.61c-8.19,4.33-14.61,11.47-20.08,18.79-4.93,6.6-9.64,14.17-16.71,18.71-3.84,2.47-8.1,3.52-12.66,3.27s-9.45-1.7-13.87-3.39c-7.25-2.78-14.12-7.03-19.39-12.78-2.59-2.83-4.78-6.08-6.28-9.62-1.85-4.35-2.18-8.9-2.96-13.51-.4-2.38-1.07-4.73-2.3-6.82-1.06-1.81-2.47-3.41-3.93-4.91-2.75-2.82-5.65-5.39-7.11-9.15s-2.01-8.3-.69-12.31c1.01-3.06-3.82-4.38-4.82-1.33-1.5,4.57-1.12,9.74.43,14.25,1.52,4.42,4.26,7.7,7.53,10.94,1.39,1.39,2.83,2.78,3.9,4.43,1.28,1.96,1.83,4.16,2.21,6.46.42,2.56.61,5.15,1.17,7.68.47,2.14,1.17,4.22,2.02,6.23,3.39,8,9.59,14.41,16.79,19.15,7.57,4.98,16.69,8.61,25.72,9.56,5.1.54,10.21-.29,14.77-2.66,3.88-2.02,7.22-5.03,10.12-8.26,6.19-6.88,10.87-14.96,17.35-21.61,5.97-6.12,13.73-11.86,22.67-11.75,4.6.06,8.97,1.81,13.17,3.54,4.45,1.82,8.87,3.69,13.68,4.29,8.97,1.12,17.36-3.61,23.1-10.22,6.58-7.57,9.89-17.22,11.57-26.98,1.82-10.65,1.9-21.47,2.77-32.21.43-5.31,1.07-10.61,2.3-15.81,1.11-4.72,3.33-9.35,3.52-14.25.09-2.18-.39-4.44-1.71-6.22-1.6-2.15-3.96-3.17-6.57-3.45-5.31-.57-10.36,2.09-14.81,4.65-9.53,5.48-18.61,11.67-28.04,17.3-8.29,4.94-17.68,9.73-27.62,9.03s-17.44-8.32-25.51-13.44c-15.82-10.03-36.63-14.19-53.94-5.46S12.25,38.14,5.69,54.45c-1.67,4.15-3.21,8.34-4.74,12.54-.46,1.27.52,2.74,1.75,3.08,1.39.38,2.61-.47,3.08-1.75h0Z" style="fill: #1d1d1b;"/>
  </g>
</svg>