<?xml version="1.0" encoding="UTF-8"?>
<svg id="Layer_2" data-name="Layer 2" xmlns="http://www.w3.org/2000/svg" viewBox="0 0 217.4 185.5">
  <g id="Layer_1-2" data-name="Layer 1">
    <path d="M83.62,48.7c-11.15-1.75-22.05-5.75-33.45-5.31-12.22.47-24.08,4.16-33.61,11.99-9.35,7.67-14.92,19.13-13.65,31.33,1.46,14.04,9.76,25.66,17.77,36.78,7.07,9.82,14.92,21.33,12.76,34.09-.94,5.58-3.41,10.9-7.2,15.11s-8.97,7.94-14.71,7.8c-2.41-.06-4.67-1.14-5.8-3.28-.96-1.84-.93-4.12-.33-6.15,1.59-5.4,7.35-7.62,12.54-7.83,12.14-.49,23.09,6.94,33.52,12.11,5.53,2.74,11.31,5.25,17.44,6.28,6.49,1.09,13.07.56,19.35-1.38,12.96-4,23.71-12.76,33.71-21.61,9.46-8.37,19.05-17.44,30.91-22.31,11.78-4.84,24.64-3.7,36.91-6.2,6.07-1.24,11.91-3.58,16.68-7.61,4.08-3.46,6.99-8.11,8.78-13.12,3.71-10.39,2.44-22.36-2.22-32.23-5.46-11.56-15.52-20.39-25.94-27.41-5.27-3.55-10.79-6.65-16.31-9.78-5.24-2.98-10.53-6.14-14.56-10.7-3.37-3.82-5.12-8.11-4.77-13.11.28-4.06,2.18-8.36,5.79-10.27,1.53-.81,3.69-1.11,5.41-.7,2.07.49,3.75,1.66,5.23,3.32,2.96,3.31,4.44,8.43,3.51,12.7-1.16,5.33-5.04,9.75-9.3,12.94-5.05,3.79-10.92,6.44-16.8,8.67-13.21,5-27.27,7.59-41.39,7.62-6.79.01-13.58-.55-20.27-1.73-1.33-.23-2.69.36-3.08,1.75-.33,1.21.41,2.84,1.75,3.08,14.59,2.58,29.51,2.5,44.08-.22,7.19-1.34,14.26-3.34,21.08-5.99,5.99-2.32,11.98-4.99,17.15-8.85s9.39-8.6,11.28-14.73c1.61-5.22.55-11.18-2.27-15.8S166.35.03,160.99,0s-9.9,3.23-12.29,7.82c-2.41,4.64-2.95,10.25-1.6,15.29,1.56,5.84,5.88,10.66,10.55,14.31,4.99,3.89,10.59,6.81,16.05,9.95s11.36,6.77,16.59,10.81c9.44,7.3,17.93,16.76,20.89,28.6,2.48,9.92,1.37,21.77-5.67,29.67-8.32,9.33-21.62,9.68-33.18,10.74-6.54.6-13.1,1.42-19.3,3.73-6.28,2.34-12.05,5.77-17.43,9.75-10.82,8.01-20.03,17.98-31.08,25.68-10.65,7.43-23.37,13.01-36.56,10.01-12.35-2.81-22.71-10.8-34.46-15.2-6.01-2.25-12.52-3.58-18.93-2.59s-11.7,4.53-13.82,10.53c-1.96,5.56-.26,12.42,5.33,15.12,5.97,2.89,13.09.46,18.17-3.15,10.4-7.4,15.95-20.31,14.07-32.94-2.03-13.6-11.63-24.25-19.1-35.21s-14.32-24.38-10.41-37.83c3.12-10.74,12.46-18.69,22.53-22.84,10.6-4.36,22.38-4.81,33.33-2.38,5.85,1.3,11.66,2.72,17.59,3.65,1.33.21,2.69-.34,3.08-1.75.33-1.19-.4-2.86-1.75-3.08h0Z" style="fill: #1d1d1b;"/>
  </g>
</svg>