<?xml version="1.0" encoding="UTF-8"?>
<svg id="Layer_2" data-name="Layer 2" xmlns="http://www.w3.org/2000/svg" viewBox="0 0 250.83 149.27">
  <g id="Layer_1-2" data-name="Layer 1">
    <path d="M33.51,72.85c4.17-3.88,7.15-8.62,8.6-14.15s2.11-10.88,2.59-16.3c.54-6.14.71-12.41,2.85-18.27,1.53-4.18,4.34-7.73,7.96-10.19,6.92-4.71,16.4-6.09,24-2.63,4.57,2.08,7.79,5.9,11.32,9.33,4.23,4.11,9.04,7.32,15.14,7.39,6.65.07,13.14-2.85,19.13-5.44,6.02-2.6,11.87-5.55,17.81-8.31,10.55-4.91,21.58-9.21,33.38-9.29,5.2-.04,10.39.72,15.26,2.6,4.64,1.79,8.56,4.78,11.81,8.5,6.08,6.97,10.84,16.71,20.35,19.54,2.87.85,5.84.8,8.78.44s6.13-1.09,9.03-.25c1.71.49,3.66,1.62,4.21,3.23.79,2.33-1.86,4.94-3.24,6.72-7.59,9.75-15.55,19.8-26.13,26.47-5.09,3.21-10.66,5.61-16.6,6.68s-11.62.31-17.29-1.32-11.38-3.96-17.3-5.07-12.11-.84-17.72,1.9c-2.65,1.3-5.07,3.08-7.26,5.04s-4.52,4.25-5.76,7.01-1.3,5.99.82,8.42c1.66,1.91,4.2,2.56,6.59,3.02,1.97.37,4.14.68,5.52,1.86,1.51,1.28,2.26,3.01,2.64,5.01.35,1.83.13,3.98-.51,5.87-.72,2.15-2.34,4.12-4.06,5.7-4.11,3.78-9.58,5.96-14.67,8.07-6.09,2.54-12.29,4.83-18.56,6.89-12.54,4.12-25.4,7.28-38.42,9.45-12.95,2.16-26.07,3.3-39.2,3.45-6.44.07-13.05.17-19.45-.57-2.54-.3-5.23-1-7.12-2.8-1.42-1.35-2.23-3.02-2.68-4.94-2.42-10.39,6.25-18.95,11.58-26.87,2.56-3.8,4.62-7.88,5.36-12.43.62-3.87,1.19-7.73,2.52-11.43,1.75-4.86,4.83-8.99,8.71-12.35,1.02-.88.91-2.63,0-3.54-1.01-1.01-2.51-.89-3.54,0-4.47,3.87-7.84,8.71-9.89,14.26-1.41,3.8-1.99,7.76-2.63,11.74-1.69,10.5-10.94,17.18-15.05,26.57-2.06,4.7-3.03,10-1.96,15.08,1.16,5.47,5.16,9.54,10.54,10.99,3.17.85,6.52.94,9.78,1.08s6.75.22,10.13.23c6.75.02,13.51-.23,20.24-.73,27.16-2.05,54.01-8.27,79.24-18.55,10.09-4.11,23.48-9.27,24.69-21.82.46-4.83-1.32-9.98-5.38-12.82-2.03-1.42-4.48-1.81-6.86-2.27-1.76-.34-4.17-.65-4.34-2.58-.23-2.49,2.57-4.93,4.16-6.46,2.18-2.09,4.59-3.91,7.31-5.24,5.26-2.57,11.14-2.16,16.66-.78,6,1.5,11.73,3.9,17.76,5.3s12.52,1.5,18.75.04c12.72-2.97,23.32-11.3,31.96-20.77,4.35-4.77,8.32-9.87,12.27-14.97,2.04-2.63,3.93-5.45,3.37-8.95-.43-2.65-2.29-4.79-4.52-6.16-2.42-1.49-5.27-2.08-8.09-1.99-3.46.11-6.87,1.04-10.34.84-4.46-.26-8.05-3.1-11.01-6.36-3.41-3.75-6.17-8.04-9.45-11.89-3.45-4.05-7.63-7.36-12.52-9.5-10.36-4.52-22.19-4.38-33.02-1.72-12.79,3.13-24.41,9.77-36.32,15.15-3.02,1.37-6.08,2.66-9.2,3.79s-6.31,2.16-9.61,2.24c-5.84.14-9.86-3.46-13.74-7.37s-7.45-7.33-12.46-9.35c-4.29-1.72-9.1-2.24-13.68-1.69-9.54,1.14-18.89,6.6-22.97,15.57-2.74,6.03-3.33,12.6-3.85,19.12-.44,5.61-1.11,11.25-2.35,16.75s-3.67,9.56-7.63,13.24c-2.36,2.2,1.18,5.73,3.54,3.54h0Z" style="fill: #1d1d1b;"/>
  </g>
</svg>