<svg xmlns="http://www.w3.org/2000/svg" viewBox="14 22 70 74" fill="none" stroke="#3D233B" stroke-linecap="round" stroke-linejoin="round" role="img" aria-label="Sleep">
  <!-- Crescent moon + small dream loops -->
  <path stroke-width="2" d="M 70 30 C 50 36 42 50 44 64 C 46 80 60 88 74 86 C 64 82 56 74 54 62 C 52 48 58 38 70 30 Z"/>
  <path stroke-width="1.4" d="M 24 48 C 28 46 32 48 30 52 C 28 54 24 52 26 48"/>
  <path stroke-width="1.4" d="M 22 68 C 26 66 30 68 28 72 C 26 74 22 72 24 68"/>
  <path stroke-width="1.4" d="M 28 82 C 32 80 36 82 34 86"/>
</svg>
