<svg xmlns="http://www.w3.org/2000/svg" viewBox="10 22 92 70" fill="none" stroke="#3D233B" stroke-linecap="round" stroke-linejoin="round" role="img" aria-label="Hands">
  <!-- Two open palms — gesture of receiving -->
  <path stroke-width="2" d="M 20 56 C 24 48 30 42 40 40 C 48 42 52 50 52 60 C 52 68 48 76 40 80 C 30 82 22 74 20 66 Z"/>
  <path stroke-width="2" d="M 90 56 C 86 48 80 42 70 40 C 62 42 58 50 58 60 C 58 68 62 76 70 80 C 80 82 88 74 90 66 Z"/>
  <path stroke-width="1.4" opacity="0.55" d="M 32 42 C 32 36 34 32 36 30"/>
  <path stroke-width="1.4" opacity="0.55" d="M 78 42 C 78 36 76 32 74 30"/>
</svg>
