<svg xmlns="http://www.w3.org/2000/svg" viewBox="4 26 106 74" fill="none" stroke="#3D233B" stroke-linecap="round" stroke-linejoin="round" role="img" aria-label="People">
  <!-- Three overlapping figures — community, collective -->
  <path stroke-width="1.4" d="M 30 40 C 22 40 18 46 18 52 C 18 58 22 62 30 62 C 38 62 42 58 42 52 C 42 46 38 40 30 40 Z"/>
  <path stroke-width="1.4" d="M 18 66 C 14 74 12 82 12 90"/>
  <path stroke-width="1.4" d="M 42 66 C 46 74 48 82 48 90"/>
  <path stroke-width="2" d="M 80 40 C 72 40 68 46 68 52 C 68 58 72 62 80 62 C 88 62 92 58 92 52 C 92 46 88 40 80 40 Z"/>
  <path stroke-width="2" d="M 68 66 C 64 74 62 82 62 90"/>
  <path stroke-width="2" d="M 92 66 C 96 74 98 82 98 90"/>
  <path stroke-width="1.4" d="M 55 34 C 48 34 44 40 44 46 C 44 52 48 56 55 56 C 62 56 66 52 66 46 C 66 40 62 34 55 34 Z"/>
  <path stroke-width="1.4" d="M 44 60 C 40 68 38 78 38 86"/>
  <path stroke-width="1.4" d="M 66 60 C 70 68 72 78 72 86"/>
</svg>
