<?xml version="1.0" encoding="UTF-8"?>
<svg id="Layer_2" data-name="Layer 2" xmlns="http://www.w3.org/2000/svg" viewBox="0 0 345.57 458.01">
  <g id="Layer_1-2" data-name="Layer 1">
    <path d="M7.03,85.72c9.26-7.01,13.38-17.8,15.95-28.76s3.75-22.72,8.33-32.85c2.21-4.9,5.09-9.16,9.3-12.51,5.18-4.13,11.75-6.03,18.27-6.47,7.1-.48,14.22.46,21.17,1.85,8.15,1.62,16.22,3.71,24.29,5.68,17.46,4.26,34.88,8.73,52.23,13.39,17.28,4.65,34.51,9.49,51.67,14.54,17.17,5.05,34.28,10.29,51.32,15.73,8.56,2.73,17.07,5.64,25.65,8.31s16.98,4.6,25.68,3.39c6.52-.9,13.07-3.95,17.54-8.86,4.62-5.07,6.65-11.92,4.95-18.63s-6.36-12.09-12.13-15.33c-6.29-3.53-13.77-3.97-20.64-1.97s-13.56,6.53-18.33,12.17c-5.3,6.28-8.55,13.84-12.37,21.03-6.83,12.84-16.6,23.68-28.02,32.61s-24.66,16.06-38.18,21.64c-16.03,6.62-32.72,11.44-49.37,16.23-14.54,4.18-29.12,8.31-43.21,13.86-12.55,4.95-24.79,10.83-36.07,18.25-10.88,7.16-20.85,15.74-28.77,26.12-8.37,10.96-13.87,23.79-15.95,37.43-2.66,17.36-1.07,35.17-.16,52.61s2.12,36.53,3.52,54.77c1.39,18.16,2.99,36.3,4.81,54.42s3.87,36.38,6.14,54.54c.8,6.41,2.06,14.2,8.34,17.59,7.63,4.12,15.96-1.05,22.44-5,14.76-8.98,29.35-18.23,43.76-27.75,14.41-9.52,28.65-19.31,42.69-29.36s28.12-20.53,41.89-31.18c6.83-5.28,13.61-10.63,20.35-16.04,6.21-4.99,12.36-10.06,18.75-14.82,12.31-9.18,25.78-17.57,40.95-20.92,13.21-2.91,27.91-2.12,39.7,4.99,5.19,3.13,9.42,7.36,12.37,12.65,2.76,4.95,4.38,10.61,4.62,16.2.24,5.49-.76,10.99-3.45,15.78-2.9,5.15-8.37,10.36-14.65,10.65-7.25.33-13.38-5.63-17.52-10.94-4.21-5.41-7.15-11.73-9.28-18.21-2.26-6.87-3.7-13.97-4.88-21.09-1.37-8.26-2.49-16.57-3.7-24.85-2.62-17.92-5.14-35.85-7.87-53.75-2.41-15.77-5.76-31.88-14.98-45.24-8.58-12.44-20.75-21.73-33.29-29.89-14.18-9.23-28.84-17.79-43.54-26.17s-30.77-17.09-46.43-25.12-30.54-15.5-46.31-22.11c-15.25-6.4-31.08-11.64-47.53-13.8-15.22-1.99-30.89-.93-45.28,4.66-1.26.49-2.13,1.68-1.75,3.08.33,1.2,1.81,2.24,3.08,1.75,14.69-5.71,30.62-6.57,46.1-4.17s31.8,7.99,46.78,14.47c15.63,6.76,30.88,14.49,46,22.3,15.49,8,30.81,16.35,45.93,25.04,14.45,8.3,28.94,16.72,42.82,25.96,12.14,8.09,23.94,17.55,31.5,30.26,8.22,13.82,10.6,30.11,12.89,45.77,2.63,17.99,5.26,35.98,7.89,53.97,2.17,14.85,3.73,30.19,9.18,44.29,2.6,6.71,6.07,13.04,10.85,18.46,4.88,5.53,11.77,10.81,19.55,10.33,7.19-.44,13.48-5.27,17.46-11.04,3.36-4.86,5.04-10.73,5.39-16.59.72-11.87-4.15-24.47-13.13-32.36-10.66-9.37-25.36-12.69-39.26-11.65-15.32,1.15-29.46,7.37-42.24,15.63-13.67,8.84-25.99,19.63-38.74,29.7-13.44,10.63-27.09,21.01-40.92,31.13s-28.07,20.14-42.38,29.81-28.67,18.99-43.26,28.08c-3.67,2.28-7.34,4.55-11.03,6.8-3.32,2.03-6.65,4.31-10.31,5.69-3.14,1.18-6.82,1.84-9.69-.34-2.26-1.71-3.28-4.6-3.92-7.25-.88-3.62-1.18-7.38-1.64-11.06-.55-4.52-1.09-9.04-1.62-13.56-1.04-8.96-2.03-17.93-2.96-26.91-1.89-18.11-3.56-36.25-5.01-54.4-1.45-18.07-2.68-36.16-3.69-54.26-.51-9.05-.97-18.09-1.36-27.15-.37-8.53-.61-17.09.03-25.61,1.07-14.21,5.29-27.67,13.28-39.52,7.03-10.42,16.45-19.13,26.72-26.29,10.79-7.53,22.6-13.58,34.75-18.58,13.61-5.6,27.71-9.79,41.84-13.86,16.5-4.76,33.08-9.38,49.1-15.59,14.17-5.49,27.91-12.23,40.3-21.1,11.81-8.46,22.38-18.74,30.19-31.05,4.28-6.75,7.29-14.19,11.46-20.99,3.81-6.2,8.9-11.39,15.49-14.6,5.86-2.86,13.04-3.85,19.18-1.28,5.48,2.29,10.16,7.11,11.78,12.88,1.68,5.96-.62,11.8-5.13,15.84-4.91,4.4-11.6,6.25-18.09,6.19-8.64-.08-16.94-2.99-25.06-5.66s-17.01-5.54-25.54-8.24c-16.98-5.37-34.03-10.54-51.13-15.52s-34.42-9.8-51.71-14.4-34.48-8.96-51.8-13.14C85.42,2.94,70.14-1.56,55.02.53c-6.91.96-13.45,3.61-18.75,8.2-4.1,3.55-7.2,8.18-9.39,13.12-4.68,10.51-6.01,22.04-8.57,33.16-2.27,9.85-5.6,20.17-13.8,26.38-1.07.81-1.64,2.16-.9,3.42.62,1.06,2.34,1.72,3.42.9h0Z" style="fill: #1d1d1b;"/>
  </g>
</svg>