<?xml version="1.0" encoding="UTF-8"?>
<svg id="Layer_2" data-name="Layer 2" xmlns="http://www.w3.org/2000/svg" viewBox="0 0 331.46 446.25">
  <g id="Layer_1-2" data-name="Layer 1">
    <path d="M30.03,99.94c1.22-8.77,2.69-17.51,4.08-26.26,1.99-12.55,3.99-25.1,6.21-37.62.57-3.2,1-6.51,1.89-9.64,2.04-7.21,7.87-11.57,14.8-13.43,4.06-1.09,8.27-1.44,12.46-1.49,5.18-.07,10.27.34,15.31,1.58,10.75,2.63,20.57,8.04,29.78,14.03,19.33,12.57,36.7,27.84,55.73,40.83s38.73,22.88,60.92,25.94c10.9,1.5,22.02,1.21,32.7-1.58,10.15-2.66,19.64-7.52,27.81-14.09,15.15-12.18,27.63-33.76,19.71-53.41C305.11,9.09,287.96.23,271.6,0c-18.42-.26-34.56,11.43-43.22,27.2-4.47,8.13-7.09,17.25-7.61,26.52-.59,10.46,1.48,21.06,5.22,30.8,7.98,20.8,22.94,37.72,39.49,52.23,8.55,7.49,17.54,14.45,26.5,21.44,8.5,6.64,17.16,13.33,24.01,21.73,6.22,7.62,10.56,16.98,10.5,26.97-.03,4.69-1.09,9.37-3.45,13.44s-6.18,7.61-10.28,10.25c-8.8,5.68-19.21,9.19-29.52,10.8s-21.14.96-31-2.64c-19.1-6.98-30.78-24.95-45.32-38.06-7.07-6.37-15.27-11.38-24.4-14.19-8.61-2.64-18.17-3.22-26.59.38-18.87,8.07-21.7,32.79-15.19,49.96,6.85,18.09,22.14,32.2,38.7,41.52,19.2,10.8,41.22,15.55,62.14,21.8,10.64,3.17,21.23,6.69,31.24,11.52,8.8,4.24,16.91,9.73,23.94,16.54,12.61,12.21,22.98,29.88,19.65,48.05-3.25,17.73-17.76,29.56-33.47,36.52-8.29,3.67-17.15,6.14-26.04,7.83-9.78,1.86-19.77,2.86-29.72,2.6s-19.72-1.85-28.86-5.61c-7.85-3.24-15.37-8.27-20.31-15.18-4.37-6.1-7.21-13.47-7.95-20.75s.29-14.52,3.93-20.74c3.66-6.24,9.8-10.71,16.99-12.22s14.95.01,21.47,3.43c6.49,3.41,12.25,8.91,14.88,15.69,3.28,8.47,2.05,18.03-1.72,26.12-4.24,9.09-11.14,16.8-19,22.93s-17.34,11.41-26.78,15.3c-18.7,7.71-39.06,10.55-59.15,8.28-20.58-2.32-40.32-10.09-57.58-21.41-13.52-8.87-26.09-19.59-35.87-32.54-10.26-13.59-17.16-29.29-20.26-46.03-2.32-12.55-2.34-25.3-1.28-37.98.73-8.69,1.63-17.36,2.55-26.03,1.3-12.27,2.67-24.54,4.09-36.8,1.66-14.41,3.38-28.82,5.13-43.22,1.84-15.11,3.74-30.2,5.69-45.3,1.87-14.44,3.71-28.31,5.69-42.63,1.68-12.13,3.42-24.25,5.31-36.35,1.28-8.23,2.6-16.46,4.22-24.63.26-1.32-.38-2.7-1.75-3.08-1.23-.34-2.81.42-3.08,1.75-1.73,8.65-3.1,17.37-4.45,26.09-1.91,12.37-3.68,24.76-5.39,37.16-2.02,14.63-3.96,29.26-5.84,43.91s-3.87,30.49-5.73,45.74c-1.75,14.4-3.46,28.81-5.12,43.23-1.39,12.14-2.75,24.28-4.02,36.43-.88,8.39-1.75,16.79-2.43,25.2-1.12,13.96-.66,28.01,2.36,41.72,3.72,16.9,11.39,32.61,22.14,46.15s23.77,24.21,38.03,33.17c17.93,11.26,38.26,18.59,59.36,20.66,20.46,2.01,41.22-1.24,60.13-9.25,9.83-4.16,19.31-9.5,27.72-16.11,8.03-6.32,15.16-14.35,19.54-23.65,4.12-8.74,5.85-18.9,2.95-28.3-2.41-7.83-7.96-14.31-14.76-18.73-13.58-8.82-32.8-9.14-44.31,3.33s-10.83,30.14-4.48,44.25c3.45,7.67,8.92,14.06,15.81,18.84,8.19,5.69,17.83,9.11,27.62,10.77,10.23,1.74,20.66,1.78,30.97.74,9.56-.96,19.08-2.68,28.28-5.45,17.01-5.11,34.51-14.14,43.81-29.94,4.67-7.93,6.88-17.23,6.11-26.41s-4.25-18.26-9.27-26.12c-5.27-8.27-12.12-15.5-19.85-21.5-8.36-6.49-17.65-11.25-27.45-15.18-21-8.42-43.36-12.69-64.57-20.49-18.48-6.8-36.19-17.34-47.84-33.62-5.12-7.16-9.04-15.42-10.09-24.24s.57-19.82,6.82-27.03c12.52-14.42,34.69-7.47,47.99,1.95,7.99,5.66,14.52,13.3,21.24,20.34,6.93,7.27,14.22,14.43,22.99,19.48,19.22,11.08,43.05,9.44,62.93,1.01,9.47-4.02,19.17-9.87,23.68-19.54,4.33-9.27,3.76-20.15.06-29.53-4-10.16-11.39-18.47-19.47-25.62s-17.36-13.91-26.04-20.83c-17.44-13.91-34.64-29.03-45.89-48.59-9.98-17.35-14.93-38.17-8.32-57.6,5.56-16.33,19.38-31.1,37.04-33.33,15.3-1.93,32.91,4.95,40.05,19.16,4.16,8.27,3.5,18.15.25,26.71-3.64,9.57-10.54,17.75-18.55,23.99s-17.62,10.73-27.63,12.94c-10.51,2.32-21.5,2.15-32.05.18-22.22-4.13-42.07-15.35-60.27-28.32-18.79-13.39-36.24-28.8-56.08-40.67-9.64-5.77-20.16-10.64-31.38-12.2-4.93-.69-9.94-.79-14.91-.44-4.24.3-8.55.95-12.55,2.45-7.35,2.76-13.26,8.4-15.34,16.13-.89,3.31-1.37,6.78-1.96,10.15-2.23,12.67-4.25,25.39-6.27,38.09-1.33,8.36-2.73,16.72-3.89,25.11-.19,1.34.32,2.68,1.75,3.08,1.17.32,2.89-.4,3.08-1.75h0Z" style="fill: #1d1d1b;"/>
  </g>
</svg>