<?xml version="1.0" standalone="no"?>
<!DOCTYPE svg PUBLIC "-//W3C//DTD SVG 20010904//EN"
 "http://www.w3.org/TR/2001/REC-SVG-20010904/DTD/svg10.dtd">
<svg version="1.0" xmlns="http://www.w3.org/2000/svg"
 width="2616.000000pt" height="833.000000pt" viewBox="0 0 2616.000000 833.000000"
 preserveAspectRatio="xMidYMid meet">

<g transform="translate(0.000000,833.000000) scale(0.100000,-0.100000)"
fill="#000000" stroke="none">
<path d="M1880 7751 c-239 -53 -448 -167 -680 -371 -116 -102 -119 -143 -23
-258 138 -165 183 -197 248 -172 15 6 68 45 119 87 170 143 295 211 441 239
153 30 240 5 401 -118 113 -86 386 -266 469 -310 316 -165 749 -88 1124 202
246 191 262 231 145 368 -108 125 -147 162 -181 168 -52 10 -76 -1 -165 -77
-115 -98 -246 -183 -342 -221 -75 -30 -90 -32 -201 -33 -111 0 -124 2 -175 27
-30 15 -91 55 -135 89 -136 103 -406 280 -490 320 -117 56 -181 71 -335 75
-107 3 -153 0 -220 -15z"/>
<path d="M22845 5316 c-34 -10 -60 -26 -85 -52 -26 -29 -307 -603 -1095 -2239
-885 -1840 -1059 -2208 -1062 -2250 -5 -62 25 -125 80 -169 38 -30 41 -31 165
-34 72 -2 142 1 163 7 69 21 96 63 242 373 153 322 221 443 344 611 353 476
803 786 1289 886 161 33 316 42 668 39 l329 -3 438 -910 c241 -500 448 -922
460 -938 38 -52 89 -67 227 -67 103 0 129 3 162 20 70 36 119 131 105 203 -9
45 -2112 4415 -2144 4456 -15 19 -43 43 -62 52 -47 25 -161 32 -224 15z m438
-1585 c186 -385 337 -702 337 -705 0 -3 -96 -6 -212 -6 -501 0 -809 -62 -1177
-236 -63 -30 -115 -53 -116 -52 -5 7 819 1707 825 1703 4 -2 158 -319 343
-704z"/>
<path d="M1229 5297 c-29 -16 -54 -40 -74 -72 l-30 -48 0 -2232 0 -2232 30
-48 c20 -32 45 -56 74 -72 l44 -23 1388 0 c956 0 1396 3 1416 11 40 15 82 57
104 104 14 30 19 64 19 141 0 119 -10 156 -59 207 -67 70 0 67 -1313 67
l-1178 0 0 820 0 819 1028 3 1027 3 42 22 c81 44 113 113 113 243 0 129 -33
201 -110 240 -38 20 -61 20 -1070 20 l-1030 0 0 760 0 760 1208 2 1209 3 48
30 c32 20 57 45 72 75 23 42 24 54 21 172 -3 124 -4 127 -34 164 -16 21 -43
47 -58 58 -27 21 -30 21 -1435 24 l-1407 2 -45 -23z"/>
<path d="M13845 5306 c-38 -17 -90 -72 -104 -109 -15 -40 -15 -4464 0 -4504
14 -38 56 -81 103 -105 33 -17 54 -19 161 -16 114 3 124 5 162 31 22 15 50 46
64 70 l24 42 5 730 5 730 23 53 c72 170 218 306 377 351 22 7 483 72 1025 146
634 86 1020 143 1084 160 128 33 267 85 390 146 55 27 101 49 103 49 2 0 3
-530 3 -1177 0 -1124 1 -1180 19 -1218 41 -88 98 -115 249 -115 130 0 179 19
227 88 l30 44 3 2220 c1 1507 -1 2233 -8 2259 -13 49 -52 94 -101 119 -31 17
-59 20 -154 20 -125 0 -166 -12 -212 -62 -54 -57 -53 -44 -53 -768 0 -564 -2
-676 -15 -705 -53 -128 -322 -299 -600 -382 -55 -16 -386 -65 -1065 -158 -542
-74 -1012 -142 -1044 -150 -72 -19 -199 -69 -242 -96 -17 -10 -34 -19 -37 -19
-4 0 -8 494 -9 1098 l-3 1099 -30 48 c-48 77 -92 95 -234 95 -75 -1 -127 -6
-146 -14z"/>
<path d="M10704 5228 c-17 -6 -69 -42 -115 -80 -181 -151 -443 -301 -630 -361
-153 -50 -233 -62 -414 -61 -262 0 -383 36 -679 199 -175 97 -303 153 -421
185 -116 32 -357 39 -492 15 -338 -60 -637 -235 -943 -552 -176 -181 -205
-237 -180 -334 9 -35 28 -60 87 -117 92 -89 135 -112 204 -112 75 0 108 21
210 133 210 231 396 365 609 437 48 17 97 24 190 27 163 7 214 -6 395 -101
l140 -73 5 -1859 5 -1859 21 -40 c11 -22 40 -53 63 -70 40 -28 49 -30 154 -33
64 -2 127 1 149 7 50 15 97 57 119 106 18 38 19 114 19 1788 0 961 3 1747 8
1747 4 0 57 -7 117 -15 522 -70 1068 108 1570 512 123 98 155 145 155 222 0
63 -29 116 -113 204 -89 93 -144 114 -233 85z"/>
</g>
</svg>
